<?xml version="1.0" encoding="UTF-8"?>
<svg xmlns="http://www.w3.org/2000/svg" xmlns:xlink="http://www.w3.org/1999/xlink" version="1.1" viewBox="0 0 869.9 226.8">
  <defs>
    <style>
      .cls-1 {
        fill: none;
      }

      .cls-2, .cls-3 {
        fill-rule: evenodd;
      }

      .cls-2, .cls-4 {
        fill: #fff;
      }

      .cls-5 {
        fill: #b68a33;
      }

      .cls-6 {
        fill: url(#linear-gradient-8);
      }

      .cls-7 {
        fill: url(#linear-gradient-7);
      }

      .cls-8 {
        fill: url(#linear-gradient-5);
      }

      .cls-9 {
        fill: url(#linear-gradient-6);
      }

      .cls-10 {
        fill: url(#linear-gradient-9);
      }

      .cls-11 {
        fill: url(#linear-gradient-4);
      }

      .cls-12 {
        fill: url(#linear-gradient-3);
      }

      .cls-13 {
        fill: url(#linear-gradient-2);
      }

      .cls-14, .cls-3 {
        fill: #2d2a26;
      }

      .cls-15 {
        fill: url(#linear-gradient);
      }

      .cls-16 {
        isolation: isolate;
      }

      .cls-17 {
        fill: #c8212f;
      }

      .cls-18 {
        fill: url(#linear-gradient-10);
      }

      .cls-19 {
        fill: url(#linear-gradient-11);
      }

      .cls-20 {
        fill: url(#linear-gradient-12);
      }

      .cls-21 {
        fill: url(#linear-gradient-13);
      }

      .cls-22 {
        fill: url(#linear-gradient-14);
      }

      .cls-23 {
        fill: url(#linear-gradient-15);
      }

      .cls-24 {
        fill: #dbdbda;
      }

      .cls-25 {
        fill: #038442;
      }
    </style>
    <linearGradient id="linear-gradient" x1="18.2" y1="29.6" x2="156.5" y2="29.6" gradientTransform="translate(0 228.6) scale(1 -1)" gradientUnits="userSpaceOnUse">
      <stop offset="0" stop-color="#c8212f"/>
      <stop offset=".2" stop-color="#c82431"/>
      <stop offset=".3" stop-color="#cb2e3b"/>
      <stop offset=".4" stop-color="#cf3f4a"/>
      <stop offset=".5" stop-color="#d45660"/>
      <stop offset=".5" stop-color="#d8646d"/>
      <stop offset=".6" stop-color="#d4555f"/>
      <stop offset=".7" stop-color="#cf3e4a"/>
      <stop offset=".8" stop-color="#cb2d3a"/>
      <stop offset=".9" stop-color="#c82431"/>
      <stop offset="1" stop-color="#c8212f"/>
    </linearGradient>
    <linearGradient id="linear-gradient-2" x1="147.8" y1="99.4" x2="154.7" y2="115.7" gradientTransform="translate(0 228.6) scale(1 -1)" gradientUnits="userSpaceOnUse">
      <stop offset="0" stop-color="#fff"/>
      <stop offset="1" stop-color="#b68a33"/>
    </linearGradient>
    <linearGradient id="linear-gradient-3" x1="-4570" y1="99.4" x2="-4563.1" y2="115.7" gradientTransform="translate(-4543.2 228.6) rotate(-180)" gradientUnits="userSpaceOnUse">
      <stop offset="0" stop-color="#fff"/>
      <stop offset="1" stop-color="#b68a33"/>
    </linearGradient>
    <linearGradient id="linear-gradient-4" x1="87.3" y1="50.6" x2="87.3" y2="96.2" gradientTransform="translate(0 228.6) scale(1 -1)" gradientUnits="userSpaceOnUse">
      <stop offset="0" stop-color="#fefefe"/>
      <stop offset=".2" stop-color="#f8f8f8"/>
      <stop offset=".4" stop-color="#e9e8e8"/>
      <stop offset=".6" stop-color="#d0cfce"/>
      <stop offset=".9" stop-color="#adabaa"/>
      <stop offset="1" stop-color="#9b9997"/>
    </linearGradient>
    <linearGradient id="linear-gradient-5" x1="146.3" y1="120.9" x2="154" y2="136.8" gradientTransform="translate(0 228.6) scale(1 -1)" gradientUnits="userSpaceOnUse">
      <stop offset="0" stop-color="#fefefe"/>
      <stop offset=".2" stop-color="#f8f8f8"/>
      <stop offset=".4" stop-color="#e9e8e8"/>
      <stop offset=".6" stop-color="#d0cfce"/>
      <stop offset=".9" stop-color="#adabaa"/>
      <stop offset="1" stop-color="#9b9997"/>
    </linearGradient>
    <linearGradient id="linear-gradient-6" x1="151.6" y1="76.7" x2="159.9" y2="86.5" gradientTransform="translate(0 228.6) scale(1 -1)" gradientUnits="userSpaceOnUse">
      <stop offset="0" stop-color="#fefefe"/>
      <stop offset=".2" stop-color="#f8f8f8"/>
      <stop offset=".4" stop-color="#e9e8e8"/>
      <stop offset=".6" stop-color="#d0cfce"/>
      <stop offset=".9" stop-color="#adabaa"/>
      <stop offset="1" stop-color="#9b9997"/>
    </linearGradient>
    <linearGradient id="linear-gradient-7" x1="742.1" y1="120.9" x2="749.8" y2="136.8" gradientTransform="translate(770.4 228.6) rotate(-180)" gradientUnits="userSpaceOnUse">
      <stop offset="0" stop-color="#fefefe"/>
      <stop offset=".2" stop-color="#f8f8f8"/>
      <stop offset=".4" stop-color="#e9e8e8"/>
      <stop offset=".6" stop-color="#d0cfce"/>
      <stop offset=".9" stop-color="#adabaa"/>
      <stop offset="1" stop-color="#9b9997"/>
    </linearGradient>
    <linearGradient id="linear-gradient-8" x1="747.4" y1="76.7" x2="755.7" y2="86.5" gradientTransform="translate(770.4 228.6) rotate(-180)" gradientUnits="userSpaceOnUse">
      <stop offset="0" stop-color="#fefefe"/>
      <stop offset=".2" stop-color="#f8f8f8"/>
      <stop offset=".4" stop-color="#e9e8e8"/>
      <stop offset=".6" stop-color="#d0cfce"/>
      <stop offset=".9" stop-color="#adabaa"/>
      <stop offset="1" stop-color="#9b9997"/>
    </linearGradient>
    <linearGradient id="linear-gradient-9" x1="36.8" y1="82.3" x2="62.8" y2="108.4" gradientTransform="translate(0 228.6) scale(1 -1)" gradientUnits="userSpaceOnUse">
      <stop offset="0" stop-color="#fff"/>
      <stop offset=".3" stop-color="#e5d6b8"/>
      <stop offset=".6" stop-color="#ccad71"/>
      <stop offset=".9" stop-color="#bc9344"/>
      <stop offset="1" stop-color="#b68a33"/>
    </linearGradient>
    <linearGradient id="linear-gradient-10" x1="135.9" y1="80.4" x2="112.1" y2="108.1" gradientTransform="translate(0 228.6) scale(1 -1)" gradientUnits="userSpaceOnUse">
      <stop offset="0" stop-color="#fff"/>
      <stop offset=".3" stop-color="#e5d6b8"/>
      <stop offset=".6" stop-color="#ccad71"/>
      <stop offset=".9" stop-color="#bc9344"/>
      <stop offset="1" stop-color="#b68a33"/>
    </linearGradient>
    <linearGradient id="linear-gradient-11" x1="-3.5" y1="190.3" x2="30.3" y2="166.2" gradientTransform="translate(0 228.6) scale(1 -1)" gradientUnits="userSpaceOnUse">
      <stop offset="0" stop-color="#fff"/>
      <stop offset="0" stop-color="#fbf8f4"/>
      <stop offset=".3" stop-color="#f0e8d7"/>
      <stop offset=".5" stop-color="#e0cda8"/>
      <stop offset=".8" stop-color="#c9a868"/>
      <stop offset="1" stop-color="#b68a33"/>
    </linearGradient>
    <linearGradient id="linear-gradient-12" x1="128.8" y1="199.1" x2="112.8" y2="168.9" gradientTransform="translate(0 228.6) scale(1 -1)" gradientUnits="userSpaceOnUse">
      <stop offset="0" stop-color="#fff"/>
      <stop offset=".1" stop-color="#f1e9d8"/>
      <stop offset=".3" stop-color="#dfcca6"/>
      <stop offset=".4" stop-color="#d0b47d"/>
      <stop offset=".6" stop-color="#c4a15c"/>
      <stop offset=".7" stop-color="#bc9445"/>
      <stop offset=".9" stop-color="#b78c37"/>
      <stop offset="1" stop-color="#b68a33"/>
    </linearGradient>
    <linearGradient id="linear-gradient-13" x1="76.8" y1="213.3" x2="75.1" y2="220.9" gradientTransform="translate(0 228.6) scale(1 -1)" gradientUnits="userSpaceOnUse">
      <stop offset="0" stop-color="#fefefe"/>
      <stop offset="1" stop-color="#2d2a26"/>
    </linearGradient>
    <linearGradient id="linear-gradient-14" x1="59.7" y1="143.5" x2="114.5" y2="143.5" gradientTransform="translate(0 228.6) scale(1 -1)" gradientUnits="userSpaceOnUse">
      <stop offset="0" stop-color="#dbdbda"/>
      <stop offset="0" stop-color="#e6e6e5"/>
      <stop offset=".2" stop-color="#f3f3f3"/>
      <stop offset=".3" stop-color="#fbfbfb"/>
      <stop offset=".5" stop-color="#fefefe"/>
      <stop offset=".7" stop-color="#fafafa"/>
      <stop offset=".8" stop-color="#efefee"/>
      <stop offset=".9" stop-color="#dddcdb"/>
      <stop offset="1" stop-color="#d0cfce"/>
    </linearGradient>
    <linearGradient id="linear-gradient-15" x1="92.4" y1="143.2" x2="74.9" y2="132.3" gradientTransform="translate(0 228.6) scale(1 -1)" gradientUnits="userSpaceOnUse">
      <stop offset="0" stop-color="#fefefe"/>
      <stop offset=".6" stop-color="#d0cfce"/>
    </linearGradient>
  </defs>
  <!-- Generator: Adobe Illustrator 28.7.10, SVG Export Plug-In . SVG Version: 1.2.0 Build 236)  -->
  <g>
    <g id="Layer_1">
      <g>
        <g>
          <path class="cls-14" d="M143.2,171.5c0,0-.1,0-.2.1-15.8,9.5-33.7,16.2-52.5,16.7-.9.7-3,2.4-3,2.4,0,0-2.2-1.6-3.1-2.4-18.8-.5-36.8-7.1-52.5-16.7,0,0-.1,0-.2-.1-.2.1-16.5,10.3-16.5,10.3v21.9c21.1,12.5,44.3,20,69.3,20.5.8.8,3.1,2.5,3.1,2.5,0,0,2.2-1.7,3-2.5,25-.5,48.2-8,69.3-20.5v-21.9s-16.4-10.2-16.6-10.3h0Z"/>
          <path class="cls-15" d="M143.8,175.2c-15.7,9-34.6,16-52.9,16.5-.5.4-3.5,2.6-3.5,2.6,0,0-3.1-2.3-3.5-2.6-18.3-.6-37.2-7.5-52.9-16.5l-12.7,8.7v18.3c20.2,11.4,42.8,18.1,66.1,18.6h.4s1.8,1.5,2.6,2.2h0c.9-.7,2.6-2.2,2.6-2.2h.4c23.3-.5,45.9-7.1,66.1-18.6v-18.3s-12.7-8.7-12.7-8.7h0Z"/>
          <path class="cls-4" d="M64,9.9c-4.2,2.3-4.4,5.1-3.5,7,.4-.3,2.2-.3,4.2-1.3.9-.2,5.5.7,8.6,3.2.4-1.2.5-2.4.5-3.7,0-4.1-1.8-7.6-4.6-9.8-.3.2-.6.3-1,.5-3.6,2.1-3.1,3.5-4.3,4.2Z"/>
          <path class="cls-5" d="M171.7,98.6c-.1-1-.2-2-.4-3-1-8.5-.7-16.7-.5-25.2.2-7.9-1-15.2-5-22.1-3.5-6.1-9.7-14.1-17.2-15.1-6.9-.9-11.5,5.2-17.8,6.9-7,1.8-11.1,1.7-17.6-3.1-2.7-2.6-12.2-22.4-14.8-26.5-2.9-4.6-6.8-7.3-12.2-8.6-6-1.4-16.7,1.1-19,4-1.6,2-2.4,1.7-2.4,3.1,0,2.4,4.8,7.4,8.8,10.1-3.1.2,1.6,7.2.9,8.9-.7,1.7-.6,10.6-10.8,12.6-8.1,2.1-17.6.2-20-.5-6.4-1.7-11.5-7.5-18.4-6.6-7.5,1-13.2,8.7-16.7,14.8-3.9,6.9-5.1,14.2-4.9,22.1.2,8.5.5,16.8-.5,25.2-.1,1-.2,2-.4,3,0-.3,35.2-18.7,36.3-19.8,1.6-1.6,2.3-2.6,4.1-4.5v47.4c.1,0,5.8-7.3,7.2-5.8.9.9-2.8,25.7-6,37.4.8,0,5-2.5,5.6-2.2.7.4.4,6.2.7,6.8.4-.7,1.9-3.4,3.1-3.1,1.2.3,1.3,3.5,1.3,4.4,1-2.2,1.9-5.2,3-7.4,1.1-2.1,3.3-6.1,4.8-8.4,1.2-1.8,6.2-7.1,9.1-8,3.8-1.2,13.5-.2,15.2,4.9h.6c2.7-6.9,12.3-7.1,17.1-3.4,2.4,1.9,8.6,10.2,9.7,12.3s4.1,7.9,5.2,10.1c0-.9-.1-4.2,1.1-4.5,1.2-.3,2.7,2.4,3.1,3.1.3-.5,0-6.4.6-6.8.6-.3,4.8,2.2,5.6,2.2-3.2-10.2-5.6-30.7-5.7-32.1,0-1.1-.5-9.8,0-13.2.3,6.1,1,7.4,6.7,13.8.1-1.6.5-43.1.1-47.4,1.8,1.8,2.3,3.2,4.1,4.5,5.8,4,36.4,19.4,36.3,19.8h0Z"/>
          <path class="cls-13" d="M131.6,112.5c0-.2.2-.3.3-.4.7.6,1.4,1.3,2,2,2.9,2.9,4.8,6.5,7.1,9.8,2.5,3.5,5.8,6.2,8.9,9.2,2.6,2.4,15.1,11.7,21.3,15.5.9-4.9-.3-14.7-.2-19.6,0-4.4,0-7.5-3.9-10.2-5.1-3.6-11-5.9-16.4-8.9-4.7-2.7-9.1-6.3-13.8-9.1-3.5-2.1-4.9-4.5-5.4-7.3-.7,6.4-.4,12.8,0,19.2h0Z"/>
          <path class="cls-12" d="M43,112.5c0-.2-.2-.3-.3-.4-.7.6-1.4,1.3-2,2-2.9,2.9-4.8,6.5-7.1,9.8-2.5,3.5-5.8,6.2-8.9,9.2-2.6,2.4-15.1,11.7-21.2,15.5-.9-4.9.3-14.7.2-19.6,0-4.4,0-7.5,4-10.2,5.1-3.6,11-5.9,16.3-8.9,4.7-2.7,9.1-6.3,13.8-9.1,3.5-2.1,4.8-4.5,5.4-7.3.7,6.4.4,12.8,0,19.2h0Z"/>
          <path class="cls-4" d="M105.5,136.6c-3.6-3.6-12.4-4.4-18.2,2.8-5.8-7.2-14.6-6.4-18.2-2.8-.7,3.6-10.2,34.9-11.4,38.3,4.8,1.4,4.7.6,7.9-.2.6,8.9,6,3.6,7.2,2.4,4.2,7.6,8.1,2.9,10.3-.5,0,2.8,1.2,4.2,4.2,6.4,3-2.2,4.2-3.6,4.2-6.4,2.1,3.4,6.1,8.1,10.3.5,1.2,1.2,6.6,6.5,7.2-2.4,3.2.9,3,1.6,7.9.2-1.3-3.3-10.8-34.7-11.4-38.3h0Z"/>
          <path class="cls-4" d="M131.6,95.7c3.3,9.6,33.8,22.9,39.9,26.7,0-6.3-.6-10.3-.5-15.3,0-4.4,0-7.5-3.9-10.2-5.1-3.5-11-5.9-16.4-8.9-4.7-2.7-9.1-6.3-13.8-9.1-3.5-2.1-4.9-4.5-5.4-7.3-.7,6.4,0,24.3,0,24.2h0Z"/>
          <path class="cls-4" d="M131.6,129.5c0,4.5,3.1,8,6.5,10.8.1,2.6,1.6,9.2,7,11.3,0,3.7,3.1,8.9,8.6,11.5,0,4.7,5.8,8.9,8.8,9.5-2.1,14.9,6.9,19.4,9,20.8,0-6.3-.6-32.1-.5-37.1,0-4.4-.1-7.4-3.9-10.3-15.6-11.6-29.8-27.9-35.8-34.9-.7,6.4.2,18.6.4,18.4h0Z"/>
          <path class="cls-4" d="M43,95.7c-3.3,9.6-33.8,22.9-39.9,26.7,0-6.3.6-10.3.5-15.3,0-4.4,0-7.5,4-10.2,5.1-3.5,11-5.9,16.3-8.9,4.7-2.7,9.1-6.3,13.8-9.1,3.5-2.1,4.8-4.5,5.4-7.3.7,6.4,0,24.3,0,24.2h0Z"/>
          <path class="cls-4" d="M43,129.5c0,4.5-3.2,8-6.5,10.8-.1,2.6-1.6,9.2-7,11.3,0,3.7-3.1,8.9-8.6,11.5,0,4.7-5.8,8.9-8.8,9.5,2.1,14.9-6.8,19.4-9,20.8,0-6.3.6-32.1.5-37.1,0-4.4.1-7.4,4-10.3,15.6-11.6,29.8-27.9,35.8-34.9.7,6.4-.2,18.6-.4,18.4h0Z"/>
          <path class="cls-11" d="M105.5,136.6c-3.6-3.6-12.4-4.4-18.2,2.8-5.8-7.2-14.6-6.4-18.2-2.8-.7,3.6-10.2,34.9-11.4,38.3,4.8,1.4,4.7.6,7.9-.2.6,8.9,6,3.6,7.2,2.4,4.2,7.6,8.1,2.9,10.3-.5,0,2.8,1.2,4.2,4.2,6.4,3-2.2,4.2-3.6,4.2-6.4,2.1,3.4,6.1,8.1,10.3.5,1.2,1.2,6.6,6.5,7.2-2.4,3.2.9,3,1.6,7.9.2-1.3-3.3-10.8-34.7-11.4-38.3h0Z"/>
          <path class="cls-8" d="M131.6,95.7c3.3,9.6,33.8,22.9,39.9,26.7,0-6.3-.6-10.3-.5-15.3,0-4.4,0-7.5-3.9-10.2-5.1-3.5-11-5.9-16.4-8.9-4.7-2.7-9.1-6.3-13.8-9.1-3.5-2.1-4.9-4.5-5.4-7.3-.7,6.4,0,24.3,0,24.2h0Z"/>
          <path class="cls-9" d="M131.6,129.5c0,4.5,3.1,8,6.5,10.8.1,2.6,1.6,9.2,7,11.3,0,3.7,3.1,8.9,8.6,11.5,0,4.7,5.8,8.9,8.8,9.5-2.1,14.9,6.9,19.4,9,20.8,0-6.3-.6-32.1-.5-37.1,0-4.4-.1-7.4-3.9-10.3-15.6-11.6-29.8-27.9-35.8-34.9-.7,6.4.2,18.6.4,18.4h0Z"/>
          <path class="cls-7" d="M43,95.7c-3.3,9.6-33.8,22.9-39.9,26.7,0-6.3.6-10.3.5-15.3,0-4.4,0-7.5,4-10.2,5.1-3.5,11-5.9,16.3-8.9,4.7-2.7,9.1-6.3,13.8-9.1,3.5-2.1,4.8-4.5,5.4-7.3.7,6.4,0,24.3,0,24.2h0Z"/>
          <path class="cls-6" d="M43,129.5c0,4.5-3.2,8-6.5,10.8-.1,2.6-1.6,9.2-7,11.3,0,3.7-3.1,8.9-8.6,11.5,0,4.7-5.8,8.9-8.8,9.5,2.1,14.9-6.8,19.4-9,20.8,0-6.3.6-32.1.5-37.1,0-4.4,0-7.5,3.9-10.3,21.6-15.4,29.8-27.9,35.8-34.9.7,6.4-.2,18.6-.4,18.4h0Z"/>
          <path class="cls-10" d="M50.8,158.3c0-1.4.7-5.4-.9-6.6-1-.8-3.6,1.4-5.7,2.7,3.7-11.6,12.4-46.4,11-56.7,10.6,5.6,16.3,9.1,22.8,13.8,6.5,4.7,7.2,18.4,3,16.8-9.3-3.6-21.4,8.9-25.5,29.2-1.1-2.5-1.9-4.5-4.7.8h0Z"/>
          <path class="cls-18" d="M123.7,158.3c0-1.4-.7-5.4.9-6.6,1-.8,3.6,1.4,5.7,2.7-3.7-11.6-12.4-46.4-11-56.7-10.6,5.6-16.3,9.1-22.8,13.8-6.5,4.7-7.2,18.4-3,16.8,9.2-3.6,21.4,8.9,25.5,29.2,1.1-2.5,1.9-4.5,4.7.8h0Z"/>
          <path class="cls-19" d="M69.2,39.5c-20.7,14.9-39.9-7.1-46.5-.9-4,3.8-15.7,16.8-15.7,22.5s.7,32.6-1.2,34.5c5.6,0,34-17.8,35.6-19.4,5.6-5.6,7.4-2.7,14.5-2.7,2.5-1.8,5.5-3.1,8.4-4.7,10.4-6.4,5.3-19,5.1-29.4h0Z"/>
          <path class="cls-20" d="M167.2,60c-1.9-5.4-14.1-22-19.4-22s-17.4,10.8-30.2,5.8c-15.4-6.1-13.3-29.1-30.6-37.2,5.6,1.6,11.3,4.7,9.6,3.7-8.3-14.9-27.8-8.8-31.9-2.3-.7,2.6,4.2,7.3,8.2,10.5,3.7,5.7,4.1,6.2,1.1,16.1-2.9,9.7,20,6.7,26.4,14.4,6.9,8.4,14.8,14.9,25.4,17.4.4,0,.7.1,1,.2,2.1,5.7,18.6,21.5,42.3,29.2-3.4-4.4,0-30.4-1.9-35.8h0Z"/>
          <path class="cls-4" d="M32.2,181.4c.6.9,1.4,1.1,2.6,1.1.4,0,.9-.1,1.4,0,.4.1.9,1.6,1.5,1.7.6.1,2.2,0,2.8,0,1.1.1,1.9,1.3,2.9,1.3.9,0,1.6-.8,1.8-1.6.3-1.1-.2-4.6.9-5.5.5.4,1.8,1.4,2.4,1.7.6.2,2.1.9,2.6,1,.2.1-3-5.2-3.1-6.3-.4-3.6,2.8-8.4,3.8-10.5.4-1,1.5-4.6,1.9-5.6.4-1,.8-3.5-.2-2.8-3.6,2.5-2.7-3.6-3.8-3.3-2.8.6-3.4,5.1-4.1,7.3-.5,1.8-4.5,11.2-5.2,11.4-.7-.4-1.9,0-2.8,1.6-1.1-1.2-2.2-3-3.9-2.9-2.2.2-1.3,3.4-1.1,4.8.1.9-.8,4.3-.7,5.1,0,.4.2,1,.3,1.4v.2c0,0,0,0,0,0Z"/>
          <path class="cls-4" d="M142.8,181.3c-.6.9-2.1,1.5-3.3,1.5-.4,0-1.5.6-1.9.9-.4.4-1.1.3-1.7.4-.6.1-1.1.2-1.6.3-1,.1-1.9,1.1-3,1.2-.9,0-1.7-.8-1.9-1.7-.3-1.1-.9-4.8-1.6-4.5-.6.3-3.1,1.3-4.5,1.8-.3,0,2.8-5.4,3.2-6.4.4-1.1.6-1.8-.1-3.4-.1-.2-2.4-4.6-3.3-6.7-.4-1-1.8-5.1-2.2-6.1-.4-1-.8-3.5.2-2.8,3.6,2.5,2.7-3.6,3.9-3.3,2.7.6,3.4,5.1,4.1,7.3.5,1.8,1.5,3.7,2.1,5.4.6,1.7,2.3,4.4,2.3,7,0,0,.5-.6,1.1-.7,1.2,0,1.9-.2,2.2,1.4,1-1.6,2.3-3.1,3.9-2.9,2.2.2,1.5,3.4,1.3,4.7-.1.9,0,1.4.3,2.2,1.2,3.2.4,4.4.4,4.4h0Z"/>
          <path class="cls-21" d="M78.9,9c0,1.7-1.6,3.1-3.5,3.1s-3.5-1.4-3.5-3.1,1.6-3.1,3.5-3.1,3.5,1.4,3.5,3.1Z"/>
          <path class="cls-14" d="M65.1,12.1c.1,0,.2,0,.3,0h0c0-.5-.5-.9-1.1-.9s-1.1.4-1.1.9.4.8,1,.9c0,0,0-.2,0-.2,0-.4.5-.7,1.1-.7Z"/>
          <path class="cls-3" d="M72.5,9.7c1,3.4,6.3,1.6,4.7-2.2,2.1-.8,3.7-.8,5.4-1.1-4.4-.7-9.6-1.2-12.8.2-1.6.7-1.1,1.7-.9,2.1.2-.8,1.7-.9,2.6-.6-.8,6.4,7.5,5.7,7.1.4-.6,4.3-6.1,4.3-6.3,1.1h0Z"/>
          <path class="cls-2" d="M76.8,8.2c-.4-.4-2-.7-2.7,0,0-.7.6-1.3,1.4-1.3s1.4.6,1.4,1.3Z"/>
          <path class="cls-14" d="M172.4,124.4c.8.3,1.6.6,2.1.8-2.3-3.4-2.1-9-2.1-10.3v-13.3c.8.3,1.6.6,2.1.8-2.3-3.4-2.1-9-2.1-10.4v-31c0-8.6-13.1-29.3-24.2-29.6-7.9-.2-17.1,10.9-28.4,8-3.6-.9-6.5-4.8-8.9-9.6-4.2-8.6-8.2-20.1-18.5-26.8-11.3-7.4-24.4.9-25.9,2.2-1.3,1.2-3.3,4.7-4.4,5.3-3.5,1.8-4.1,5-4.1,6.1s.3,4,2.4,5.7c-.3-1.4-.4-2.2,0-2.9,1.4.2,4.5.9,6.5,0,1,1,3.3,2.9,4.4,4.8,1.4,2.7,1.4,3.1,1.4,4.2,0,2.7-1.3,6.7-5.2,9.2-4.1,2.9-13.8,4.6-26,.4-6.6-2.2-9.3-6.8-15.2-6.7-11.1.3-24.2,21-24.2,29.6v31c0,1.3.2,6.9-2.1,10.4.6-.2,1.3-.5,2.1-.8v13.3c0,1.3.2,6.9-2.1,10.3.6-.2,1.3-.5,2.1-.8v17.1c0,1.3.2,6.9-2.1,10.3.6-.2,1.3-.4,2.1-.8v34.4c0,1,0,4.4-.8,7.5-.3,1,.4,2.3,1.5,1.8,4.4-1.8,10.9-5.2,10.9-14.9v-5.4c3.2-1.4,7-3.9,8.2-9.9,3.6-1.8,7.6-4.9,8.5-11.2,3.7-2.1,7.4-5.9,7.4-13.1,3.2-2.4,5.1-5.3,5.5-7.5.3-1.5.4-5.1.5-9.2,2.3-1.7,4-3.6,5-5.4-.4,8.9-2.2,21-6.4,37.6.7,0,1.7-.2,2.8-.4-.6,3.4-3.4,11.4-5.3,15-.3,0-.5,0-.8,0-.6.1-1.1.7-1.4,1.5-.9-1.3-1.9-3.4-4.4-2.6-2.5.8-2,3.9-1.5,5.3.9,2.7-1.1,3.6-.7,5.9.2,1.6,1.2,2.7,2.3,3.2.3.7.8,1.2,1.6,1.6.8.3.7-.4.7-1.4.2,0,.3-.1.5-.2.2.7.7,1.3,1.3,1.6.3.6.8,1.1,1.8,1.7,1,.5.3-.6.2-1.6.4,0,.7-.2,1.1-.5.1.3.3.6.6.8,0,0,.2.1.3.2.2,1,.9,1.6,2,2.2.7.2.4-.6.4-1.4,1,0,1.9-.6,2.3-2.2.6-2.3-.7-2.1.7-4.8.3,0,2.3.9,2.7.9-1.9-.8-3-5.4-3.4-4.1-1.7,3-.2,8.6-2.1,8.7-5.4.4-1.4-6.4-1.2-8.1.3-2.2,0-5.3,2.1-4.7,1.9.6,4.3,6.7,5.5,8.6.2.2,2.9,1.9,3,1.1-2.5-2.5-4-6.4-4.2-7.7-.4-1.8-.2-2.6.3-4,.5-1.3,3.6-6.7,4.8-9.3.3,1.1.7,2,.9,2.8.4-5.6,6.7-16.3,12.2-22.6-2,6.4-6.5,22-7.8,26.4-1,3.6-3.4,7.3-4,7.9,2.1.8,5.9,1.4,8.6.3-.4,1.4-.4,2.7.8,3.9s5.6,2.5,7.6-.9c1.6,5.8,7.8,5.5,10.3,1.5,1.1,3.3,3.2,3.8,4.5,5,1.3-1.3,3.5-1.7,4.5-5,2.4,4,8.7,4.3,10.3-1.5,2,3.5,6.2,2.4,7.6.9s1.2-2.5.8-3.9c2.7,1.1,6.5.4,8.6-.3-.6-.6-3-4.3-4-7.9-1.2-4.3-5.7-20-7.8-26.4,5.5,6.3,11.8,17,12.2,22.6.2-.8.5-1.8.9-2.8,1.3,2.6,4.3,8,4.8,9.3.5,1.3.7,2.2.3,4-.3,1.3-1.4,5.2-3.9,7.7.1.7,2.4-.6,2.5-.8,1.2-1.9,3.7-8.3,5.6-8.9,2.1-.7,1.9,2.5,2.1,4.7.2,1.7,4.2,8.5-1.2,8.1-1.9-.1-.4-5.7-2.1-8.7-.3-1.4-1.4,3.5-3.4,4.3.4,0,2.3-1.1,2.6-1.2,1.4,2.7.2,2.5.8,4.9.4,1.6,1.3,2.2,2.3,2.2,0,.8-.3,1.6.4,1.4,1.1-.6,1.8-1.2,2-2.2.1,0,.2-.1.3-.2.3-.2.4-.4.6-.8.4.2.7.4,1.1.5-.2,1-.9,2,.1,1.6,1-.7,1.5-1.2,1.8-1.7.6-.3,1.1-.9,1.3-1.6.2,0,.3.1.5.2,0,1-.1,1.6.7,1.4.8-.3,1.3-.9,1.6-1.5,1.1-.5,2.1-1.6,2.3-3.2.3-2.2-1.6-3.1-.7-5.9.4-1.4,1-4.5-1.6-5.3-2.5-.8-3.6,1.3-4.4,2.6-.3-.8-.8-1.4-1.4-1.5-.3,0-.6,0-.8,0-1.9-3.6-4.8-11.6-5.3-15,1,.2,2,.4,2.8.4-4.2-16.6-6-28.7-6.4-37.6,1,1.8,2.6,3.7,4.9,5.4,0,4.1.3,7.7.5,9.2.4,2.2,2.3,5.1,5.5,7.5,0,7.2,3.7,10.9,7.4,13.1.9,6.3,4.9,9.4,8.5,11.2,1.2,6,5,8.5,8.2,9.9v5.4c0,9.5,6.3,13,10.7,14.8,1.1.5,2.1-.4,1.8-1.2-1.1-3.2-1-6.9-1-8v-34.3c.8.3,1.6.5,2.1.7-2.3-3.4-2.1-9-2.1-10.3v-17.1h0ZM67.6,17.9h0c-.8.2-4.8.9-5.3.4.9-.5,1.5-.7,3.2-1.8,1.2,0,2.4.8,4.3,2-1.1-.4-1.2-.8-2.2-.6h0ZM10.8,156.1v9.7c0,1.2-.1,4.8-.1,8.9h0v6.5c0,4.1-3.9,7.7-6.8,8.9.6-.7,1.2-2.7,1.2-5.6v-34.7c1.8-.9,3.7-2.1,5.2-3.9.2,0,.4-.1.6-.2,0,5.4,0,9.6,0,10.5h0ZM10.8,126.4c0,1.6-.1,9.7-.1,10.7,0,4.2-3.9,7.7-6.8,9,.6-.7,1.2-2.7,1.2-5.6v-17.3c1.5-.8,3.1-1.8,4.5-3.1.4-.2.9-.3,1.4-.5-.1,2.2-.2,5.2-.2,7h0ZM3.9,119.5c.6-.7,1.2-2.7,1.2-5.6v-13.6c1.5-.8,3.1-1.8,4.5-3.1.4-.2.9-.3,1.3-.5,0,1.1-.1,2.3-.1,3.7v8.4c0,6.1-3.7,9.4-6.9,10.8h0ZM13.6,95.5c1.7-.8,3.5-2,5-3.6.3-.1.6-.2,1-.4,0,1.1-.1,2.3-.1,3.8v8.5c0,5.8-3.4,9.1-6.5,10.6.5-1.5.8-3.2.8-5.2v-8.3c0-1.9,0-3.7,0-5.5h0ZM19.4,151.1v8.5c0,6.1-3.9,9.5-6.3,10.6.6-.7.6-2.4.6-5.4v-8c0-.9,0-6,0-12.2,2-.9,4.2-2.2,5.9-4.4,0,4.1-.1,9.6-.1,11ZM19.4,121.5v8.5c0,5.7-3.5,9.4-6.3,10.7.4-1.4.6-2.9.6-4.7v-.2h0c0-.2,0-.4,0-.6v-8c0-2.1-.1-5.9,0-8.8,1.7-.8,3.5-2,5-3.6.3-.1.6-.2,1-.4,0,2.4-.1,5.6-.1,7.1h0ZM21.7,109.3c.4-1.4.6-3,.6-4.8v-14.1c1-.5,2-1.1,2.9-1.9.9-.2,1.7-.5,2.5-.8,0,.9,0,1.9,0,3.5v7.7c0,5.5-3,8.8-6,10.4h0ZM27.7,142.3v7.7c0,5.1-2.6,8.3-5.4,10v-23.6c1.9-1,3.9-2.4,5.4-4.4,0,3,0,8,0,10.3h0ZM27.7,114.5v7.7c0,5.2-2.7,8.4-5.4,10.1,0-.6,0-1.1,0-1.7v-17.4c1.1-.6,2.2-1.2,3.2-2.1.7-.2,1.4-.5,2.2-.9,0,1.4,0,1.4,0,4.4h0ZM30.6,108.7c1.1-.7,2.2-1.5,3.2-2.5.4-.2.8-.4,1.1-.6,0,.7,0,1.4,0,2.3v7.7c0,4.6-2.1,7.6-4.5,9.4,0-.7.1-1.5.1-2.3v-11.4c0-.9,0-1.8,0-2.7ZM34.9,131.7v7.7c0,4.5-2,7.5-4.3,9.3v-9.5c0-1,0-6.7,0-9.9,1.5-.9,3.1-2.1,4.3-3.8,0,2.1,0,4.8,0,6.2h0ZM34.9,87.3v7.7c0,5-2.5,8.2-5.2,9.9.5-1.6.8-3.4.8-5.5v-11.4c0-.6,0-1.2,0-1.9,1.4-.9,2.6-1.9,3.6-3,.3-.1.6-.3.9-.4,0,1.1-.1,2.6-.1,4.5h0ZM42.3,129.5c0,2.4-1.9,4.8-4.5,6.8v-5.5c0-1.3,0-8.7,0-12.2,2.1-1.6,3.7-3.4,4.6-5.1,0,6-.2,14.4-.2,16h0ZM37.8,103.8c2.1-1.6,3.7-3.4,4.6-5,0,4.2,0,8,0,9.1,0,2.4-1.9,4.8-4.5,6.8v-7.7c0-.9,0-2,0-3.1h0ZM42.3,93.1c0,2.6-2.3,5.1-5.1,7.2.4-1.4.6-2.9.6-4.6v-9.4c0-1.5-.1-3.6.1-5.3,2.1-1.5,3.5-3.2,4.5-5,0,6-.2,15.3-.2,17.1h0ZM36.1,175c.2.8,1.2,6.6-1,7.2-1.9.5-4.2-.9-2.6-5.1.8-2.1-.5-6.5.9-6.8,1.7-.4,3.2,2.1,3.8,3.9.2.5.1,1.3,0,1.5-.5-.8-1.2-2.1-1.2-.7h0ZM42,176.9c0,.4-.2.8-.2,1.2-.4-.9-1.2-3.1-1.2-1.6,0,1.1,0,7.1-1.9,7.3-2,.2-2.4-1.6-1.4-3.7,1-2.1.3-8.1,1.7-8.2,1.4-.1,2.4,1.2,3,2.7,0,.6.2,1.3,0,2.3h0ZM51.2,164.2c-.6,1.3-1.7,1.6-2.2,2.5-.7,1.1-.4,2.9-1.2,3.8-.6.6-.9,1.1-.7,2.6-.5-.9-1.2-1.4-1.8-1.8-1.1-.7-2.6-.6-3.2.8-.2-.3-.4-.6-.7-.9.2-.4.4-.8.6-1.2.4-.9.3-2.1.6-2.6.2-.4,1-.9,1.4-1.6.3-.7.3-2.3.6-3.1.3-.8.8-1.1,1.1-2.1,0-.3.3-2.3.6-3,.4-1.1,1.8-2.8,3.1-3.9,0,2.7,0,3.4.5,6.5,1.3-1.3,2.3-2.2,3.1-3.3,0,2-.2,2.5-1,3.9-.7,1.3-.3,2-1,3.3h0ZM59.1,173.9c1.1-1.1,1.7-3.4,2.4-6,.5-2.1,6.2-23.3,7.6-28.6.9-.9,1.7-1.6,2.5-2.1.5-.4,1.2-.7,2-.9-1.4,5.4-6.8,29.6-7.8,34.4-.8,3.1-3.2,3.8-6.7,3.1h0ZM72.2,173.5c-.6,3.2-.9,5.2-4.6,4.3-2.4-.6-.3-4.3.1-6.9.4-2.3,6.2-30.4,7-34.7,1,0,2.2,0,3.4.3-.7,3-5.9,36.9-5.9,37h0ZM82.5,169.2c-.2,3.1-.5,5.4-.6,6.2-1.2,6.1-8.9,5.6-7.6-2.2.4-2.1,4.4-30.4,5.2-36.4,1.6.4,3.2,1.1,4.5,1.9,0,3.2-.9,19.9-1.5,30.5h0ZM87.3,181.1c-1.5-.9-2.7-2.5-2.7-7s.6-30.3.8-34.5c1.1.9,1.8,2,2,3.2.2-1.2.9-2.3,2-3.2.1,4.2.8,30.4.8,34.5s-1.2,6.1-2.7,7ZM92.7,175.4c-.1-.8-.3-3.1-.6-6.2-.6-10.6-1.5-27.4-1.5-30.5,1.3-.8,2.9-1.5,4.5-1.9.9,6,4.9,34.3,5.2,36.4,1.4,7.9-6.4,8.3-7.6,2.2h0ZM107,177.8c-3.7.9-4-1.1-4.6-4.3,0-.1-5.2-34-5.9-37,1.2-.2,2.3-.3,3.4-.3.8,3.7,6.6,32.6,7,34.7.4,2.6,2.5,6.3.1,6.9h0ZM113.1,167.9c.6,2.6,1.3,4.9,2.4,6-3.4.6-5.8,0-6.6-3.1-1-4.9-6.4-29.1-7.8-34.4.8.2,1.5.4,2,.9.8.5,1.6,1.2,2.5,2.1,1.4,5.3,7.1,26.5,7.6,28.6h0ZM137.4,174.3c.6-1.8,2.1-4.3,3.8-3.9,1.4.3,0,4.6.9,6.8,1.6,4.1-.6,5.5-2.6,5.1-2.1-.5-1.2-6.3-1-7.2,0-1.4-.6,0-1.1.7-.1-.4-.2-.6,0-1.5h0ZM135.6,171.9c1.4.1.6,6.1,1.6,8.2,1,2.1.6,3.9-1.4,3.7-2-.2-1.9-6.3-1.9-7.3,0-1.5-.8.8-1.2,1.6,0-.4-.2-.8-.2-1.2-.1-1,0-1.7,0-2.3.5-1.4,1.6-2.8,3-2.7h0ZM130.5,165.8c.4.7,1.1,1.2,1.4,1.6.3.5.2,1.7.6,2.6.2.4.4.8.6,1.2-.3.3-.5.6-.7.9-.6-1.3-2.1-1.5-3.2-.8-.6.4-1.2.9-1.7,1.8.2-1.5,0-2-.7-2.6-.9-.9-.5-2.7-1.2-3.8-.5-.9-1.6-1.1-2.2-2.5-.6-1.3-.3-2-1-3.3-.8-1.5-.9-1.9-1-3.9.9,1.1,1.8,2,3.1,3.3.5-3.1.5-3.9.5-6.5,1.3,1.1,2.7,2.8,3.1,3.9.2.7.5,2.6.6,3,.3,1,.8,1.3,1.1,2.1.4.8.2,2.3.6,3.1h0ZM130.9,108.3c0,.2,0,.3,0,.5,0-.1,0-.3,0-.5ZM136.7,130.7v5.5c-2.5-2-4.5-4.4-4.5-6.8s-.1-10-.1-16c.9,1.7,2.5,3.5,4.6,5.1.1,3.5,0,10.8,0,12.2ZM132.1,98.8c.9,1.7,2.5,3.5,4.6,5.1,0,1.1,0,2.2,0,3.1v7.7c-2.5-2-4.5-4.4-4.5-6.8s0-4.9-.1-9.1h0ZM132.2,93.1c0-1.8-.1-11-.1-17.1,1,1.7,2.5,3.4,4.5,5,.2,1.7.1,3.8.1,5.3v9.4c0,1.8.2,3.3.6,4.6-2.8-2.1-5.1-4.6-5.1-7.2h0ZM144,139.2v9.5c-2.4-1.8-4.3-4.8-4.3-9.3v-7.7c0-1.4,0-4.1,0-6.2,1.2,1.6,2.8,2.9,4.3,3.8.1,3.3,0,9,0,9.9ZM139.6,115.7v-7.7c0-.9,0-1.6,0-2.3.4.2.8.4,1.1.6,1,1,2.1,1.8,3.2,2.5,0,.9,0,1.9,0,2.7v11.4c0,.8,0,1.6.1,2.3-2.4-1.8-4.5-4.9-4.5-9.4h0ZM139.6,95v-7.7c0-2,0-3.4-.1-4.5.3.1.6.3.9.4,1,1.1,2.1,2.1,3.6,3,0,.6,0,1.3,0,1.9v11.4c0,2.1.3,3.9.8,5.5-2.7-1.7-5.2-4.9-5.2-9.9h0ZM152.3,146.9v13.1c-2.8-1.7-5.4-4.9-5.4-10v-7.7c0-2.2,0-7.3,0-10.3,1.6,2,3.5,3.4,5.4,4.4v10.4h0ZM146.9,122.2v-7.7c0-2.9,0-2.9,0-4.4.8.4,1.6.6,2.3.9,1,.9,2.1,1.5,3.2,2.1v17.4c0,.6,0,1.2,0,1.7-2.8-1.7-5.4-4.9-5.4-10.1h0ZM146.9,98.9v-7.7c0-1.6,0-2.6,0-3.5.8.3,1.6.6,2.5.8.9.7,1.9,1.3,2.9,1.8v14.1c0,1.8.2,3.4.6,4.8-3-1.6-6-4.9-6-10.4ZM155.2,159.6v-8.5c0-1.5,0-6.9-.1-11,1.7,2.2,3.9,3.6,5.9,4.4,0,6.3,0,11.3,0,12.2v8c0,2.9,0,4.7.5,5.4-2.4-1.1-6.3-4.5-6.3-10.6h0ZM155.2,129.9v-8.5c0-1.5,0-4.7-.1-7.1.3.1.7.2,1,.4,1.5,1.6,3.3,2.7,5,3.6,0,2.8,0,6.7,0,8.8v8.6h0v.2c0,1.8.2,3.3.6,4.7-2.8-1.3-6.3-4.9-6.3-10.7h0ZM155.2,103.8v-8.5c0-1.5,0-2.8-.1-3.8.3.1.7.2,1,.4,1.5,1.6,3.3,2.7,5,3.6,0,1.8,0,3.6,0,5.5v8.3c0,2,.3,3.7.7,5.2-3.1-1.5-6.5-4.8-6.5-10.6h0ZM163.9,181.1v-6.5h0c0-4.1-.1-7.6-.1-8.9v-9.7c0-.8,0-5,0-10.5.2,0,.4.1.6.2,1.6,1.8,3.4,3,5.2,3.9v34.7c0,2.9.6,4.9,1.2,5.6-2.9-1.2-6.8-4.9-6.8-8.9h0ZM163.9,137.2c0-1-.1-9.1-.1-10.7s0-4.8-.2-7c.5.2,1,.4,1.4.5,1.4,1.4,3,2.4,4.5,3.1v17.3c0,2.9.6,4.9,1.2,5.6-2.9-1.3-6.8-4.7-6.8-9h0ZM163.8,108.7v-8.4c0-1.4,0-2.6-.1-3.7.5.2.9.4,1.4.5,1.4,1.4,3,2.4,4.5,3.1v13.6c0,2.9.6,4.9,1.2,5.6-3.2-1.4-6.9-4.8-6.9-10.8h0ZM163.8,85.8v-3h0c0-1.5,0-3,0-3.7,0-2.9-.5-6.6-3.2-8.5.8,3.2.3,3.8.3,9.1v6.7c0,2,.3,3.7.7,5.2-3.1-1.5-6.5-4.8-6.5-10.6s-.5-10-2.9-13.4v14c0,1.9.2,3.5.7,4.9-7.4-3.7-6.6-16.4-9-21.4,0,4.3,0,7.3,0,11.5s.3,3.9.8,5.5c-6.4-4.1-7.2-12.2-7.7-18.2-.6,2.2-1.6,8.1.1,13.7-4.3-3.3-6.7-10.4-6.4-15.4-.6,2.8-1.3,6.9,0,11.1-.2,4.7-.2,42.1-.2,46.2-2.5-2-5-5.7-4.7-11.3,0-.9.2-1.8.3-2.6,1.7-11.7,2.1-28.5-2.7-41.9,3.9,21-1,42.6-1.6,47-1.2,7.8,1.4,23.9,6.9,41.7-1.1-1.1-4.7-2.6-6.2-4.1,0,1.6.6,3.4.6,6.9-1.9-3.1-2.6-3.3-4.6-6.8.6,4.1.4,4.5.4,8-1.9-3.7-3-8.6-7.5-15.5-9.9-15.5-24.3-5.9-24.3-3.2,0-2.7-14.3-12.3-24.3,3.2-4.5,7-5.5,11.9-7.5,15.5,0-3.6-.2-3.9.4-8-2,3.5-2.7,3.6-4.6,6.8,0-3.5.6-5.3.6-6.9-1.5,1.5-5.1,3-6.2,4.1,5.5-17.9,8.1-33.9,6.9-41.7-.7-4.4-5.5-26-1.6-47-4.8,13.4-4.5,30.3-2.7,41.9.1.8.2,1.7.3,2.6.3,5.6-2.3,9.3-4.7,11.3,0-4.1,0-41.4-.2-46.2,1.4-4.2.7-8.3,0-11.1.3,5-2.1,12.1-6.4,15.4,1.8-5.6.7-11.4,0-13.7-.5,6-1.2,14.1-7.7,18.2.5-1.6.8-3.4.8-5.5,0-4.3,0-7.2,0-11.5-2.4,4.9-1.7,17.6-9,21.4.4-1.4.6-3,.6-4.9v-14c-2.4,3.3-2.9,11.4-2.9,13.4,0,5.8-3.4,9.1-6.5,10.6.5-1.5.8-3.2.8-5.2v-2.4c0-.4,0-.6,0-.6v-3.8c0-5.4-.6-5.9.3-9.1-2.7,1.8-3.2,5.6-3.2,8.5v3.7h0v3c0,6.1-3.7,9.4-6.9,10.9.6-.7,1.2-2.7,1.2-5.6v-29.3c0-8.2,9.6-17.7,13.2-21.9,9.9-11.6,14.2-2.2,24.1,1.2,16.5,5.6,25.3-.6,25.3-.6,8.8-5.6,8.8-10.8,8.8-14.1s-.9-5.1-2.5-6.9c-3-3-8.4-4-9.3-3.8-2,1-3.8,1-4.2,1.3-.9-1.8-.7-4.7,3.5-7,1.2-.6.7-2.1,4.3-4.2,10.4-6.1,20.5-3.9,26.4,2.8-2.1-.8-4.1-1.5-7.6-1.8,4.9,1.7,10.8,5.8,14.6,12.6,1.6,2.7,5.1,10.2,6.3,12.4,2.6,4.8,7.4,14.9,24.3,9.2,9.9-3.3,14.2-12.8,24.1-1.2,3.6,4.2,13.2,13.6,13.2,21.9v29.3c0,2.9.6,4.9,1.2,5.6-3.2-1.4-6.9-4.8-6.9-10.9h0Z"/>
          <path class="cls-1" d="M50.1,160.3c-.5-3.1-.5-3.9-.5-6.5-1.3,1.1-2.7,2.8-3.1,3.9-.3.7-.5,2.6-.6,3-.3,1-.8,1.3-1.1,2.1-.3.8-.3,2.3-.6,3.1-.3.7-1.2,1.2-1.4,1.6-.3.5-.2,1.7-.6,2.6-.2.4-.4.8-.6,1.2.2.3.5.6.7.9.6-1.3,2.1-1.5,3.2-.8.6.4,1.2.9,1.8,1.8-.2-1.5,0-2,.7-2.6.9-.9.5-2.7,1.2-3.8.5-.9,1.6-1.1,2.2-2.5.7-1.3.3-2,1-3.3.8-1.5.9-1.9,1-3.9-.8,1.1-1.8,2-3.1,3.3h0Z"/>
          <path class="cls-1" d="M128.1,157.7c-.4-1.1-1.8-2.8-3.1-3.9,0,2.7,0,3.4-.5,6.5-1.3-1.3-2.3-2.2-3.1-3.3,0,2,.2,2.5,1,3.9.6,1.3.3,2,1,3.3.6,1.3,1.7,1.6,2.2,2.5.7,1.1.4,2.9,1.2,3.8.6.6.9,1.1.7,2.6.5-.9,1.2-1.4,1.7-1.8,1.1-.7,2.6-.6,3.2.8.2-.3.4-.6.7-.9-.2-.4-.4-.8-.6-1.2-.4-.9-.3-2.1-.6-2.6-.2-.4-1-.9-1.4-1.6-.4-.7-.3-2.3-.6-3.1-.4-.8-.8-1.1-1.1-2.1-.1-.3-.3-2.3-.6-3h0Z"/>
          <path class="cls-1" d="M131,108.8c0-.1,0-.3,0-.5,0,.2,0,.4,0,.5Z"/>
          <path class="cls-4" d="M65.5,16.5c-1.7,1.1-2.3,1.3-3.2,1.8.5.5,4.5-.2,5.2-.4h0c1-.2,1.1.2,2.2.6-1.9-1.1-3.1-1.9-4.3-2h0Z"/>
          <path class="cls-24" d="M119.6,85.2c0,17.8-14.4,32.2-32.2,32.2s-32.2-14.4-32.2-32.2,14.4-32.2,32.2-32.2,32.2,14.4,32.2,32.2h0Z"/>
          <path class="cls-22" d="M114.5,85.1c0,15.1-12.2,27.4-27.4,27.4s-6.4-.6-9.4-1.6c-10.5-3.8-18-13.9-18-25.7s7.6-22,18.1-25.8c2.9-1,6-1.6,9.3-1.6,15.1,0,27.4,12.2,27.4,27.4h0Z"/>
          <path class="cls-25" d="M112.9,76h0c-23.9-6.4-51.6,0-51.6,0,2.7-7.8,8.8-13.9,16.6-16.7,2.9-1,6-1.6,9.3-1.6,11.9,0,22.1,7.6,25.8,18.2h0Z"/>
          <path class="cls-14" d="M112.9,94.3h0c-23.9,6.4-51.6,0-51.6,0,2.7,7.7,8.8,13.9,16.6,16.7,2.9,1,6,1.6,9.3,1.6,11.9,0,22.1-7.6,25.8-18.2h0Z"/>
          <image class="cls-16" width="138" height="63" transform="translate(77.4 95.2) scale(.2)" xlink:href="mohesr-logo-1.png"/>
          <image class="cls-16" width="136" height="62" transform="translate(77.7 59.9) scale(.2)" xlink:href="mohesr-logo-2.png"/>
          <path class="cls-23" d="M91.3,74.3c11.7.6,19.5,2.2,19.5,2.2,2.5,2.5,2.3,12.8,0,17.2,0,0-8.4,1.8-17.8,2.2-6.8.3-15.3-.4-15.3-.4,0,0-.4-3-.4-10.4s.3-10.5.3-10.5c0,0,7.2-.7,13.6-.4h0Z"/>
          <path class="cls-17" d="M76,84.6c0,15.6,1.8,26.3,1.8,26.3-10.5-3.8-18-13.9-18-25.7s7.6-22,18.1-25.8c0,0-1.9,9.3-1.9,25.2h0Z"/>
          <image class="cls-16" width="57" height="188" transform="translate(62.9 62.8) scale(.2)" xlink:href="mohesr-logo-3.png"/>
          <g>
            <path class="cls-14" d="M87.3,118.8c-18.5,0-33.6-15.1-33.6-33.6s15.1-33.6,33.6-33.6,33.6,15.1,33.6,33.6-15.1,33.6-33.6,33.6ZM87.3,53.9c-17.2,0-31.3,14-31.3,31.3s14,31.3,31.3,31.3,31.3-14,31.3-31.3-14-31.3-31.3-31.3h0Z"/>
            <g>
              <path class="cls-14" d="M106.8,113.7s-2.8-.8-3.5-1l-.9-3.5s0,0,0,0c0,0,0,0,0,0,0,0-1.6,2.3-2,2.9-.8,0-3.6-.2-3.6-.2,0,0,0,0,0,0h0c0,0,2.2,3,2.2,3-.3.8-1.4,3.5-1.4,3.5,0,0,0,0,0,0,0,0,0,0,0,0l3.4-1.4,2.7,2.1h0s0,0,0,0c0,0,0,0,0,0,0,0,0-3,0-3.4.7-.4,3.1-1.8,3.1-1.8,0,0,0,0,0,0,0,0,0,0,0,0"/>
              <path class="cls-4" d="M103.9,114.1s0,0,0,0c0,0,0,0,0,0h-.4c0-.1-1.2-.5-1.2-.5l-.2-.7-.3-1h0s0,0,0,0c0,0,0,0,0,0l-1.1,1.4h-1.7c0,0,0,0,0,0,0,0,0,0,0,0h0s0,0,0,0l1.1,1.4-.3.9-.2.7s0,0,0,0c0,0,0,0,0,0h0s0,0,0,0h0l.6-.3.9-.4,1.4,1.1h0s0,0,0,0v-1.8s1.4-.8,1.4-.8h0"/>
              <path class="cls-14" d="M77.7,111.8s0,0,0,0c0,0-2.8.2-3.6.2-.5-.6-2.1-2.9-2.1-2.9,0,0,0,0,0,0,0,0,0,0,0,0l-.9,3.5c-.8.2-3.5,1-3.5,1,0,0,0,0,0,0s0,0,0,0c0,0,2.4,1.4,3.1,1.8,0,.5,0,3.4,0,3.4,0,0,0,0,0,0h0s0,0,0,0l2.7-2.1,3.4,1.4s0,0,0,0c0,0,0,0,0,0,0,0-1.1-2.7-1.4-3.5l2.2-2.9s0,0,0,0"/>
              <path class="cls-4" d="M74.7,114l.6-.8h0c0-.1,0-.1,0-.1h-1.7s-.5-.7-.5-.7l-.5-.7h0s0,0,0,0c0,0,0,0,0,0l-.4,1.7-.8.3-.8.3s0,0,0,0c0,0,0,0,0,0l1.4.8v1.8s0,0,0,0h0l.9-.7.5-.4,1.1.4.4.2s0,0,0,0h0s0,0,0,0l-.3-.9-.2-.7.5-.6h0Z"/>
              <path class="cls-14" d="M67.1,65.1l-3.3-1.7-.3-3.7s0,0,0,0c0,0,0,0,0,0,0,0-1.9,2.1-2.4,2.7l-3.3-.8s0,0,0,0c0,0,0,0,0,0,0,0,1.1,2.4,1.4,3.1-.5.6-2,3-2,3,0,0,0,0,0,0,0,0,0,0,0,0,0,0,2.8-.5,3.6-.6l2.3,2.8s0,0,0,0h0s0,0,0,0c0,0,.5-2.7.6-3.5.8-.3,3.3-1.3,3.3-1.3,0,0,0,0,0,0s0,0,0,0"/>
              <path class="cls-14" d="M92.4,50.9s0,0,0,0c0,0-2.8-.2-3.6-.2-.3-.7-1.5-3-1.5-3h0s0,0,0,0c0,0,0,0,0,0,0,0-1.2,2.3-1.5,3.1-.8,0-3.6.2-3.6.2,0,0,0,0,0,0,0,0,0,0,0,0,0,0,2.1,1.9,2.7,2.5l-.7,3.6s0,0,0,0h0s2.4-1.4,3.1-1.7c.7.3,3.1,1.7,3.1,1.7h0s0,0,0,0l-.7-3.6c.6-.6,2.7-2.5,2.7-2.5,0,0,0,0,0,0"/>
              <path class="cls-4" d="M89.6,51.8s0,0,0,0h-1.6c0,0-.8-1.7-.8-1.7,0,0,0,0,0,0s0,0,0,0l-.8,1.7h-1.6c0,0,0,0,0,.1,0,0,0,0,0,0l1.2,1.2-.3,1.8s0,0,0,0c0,0,0,0,0,0l1.6-.8,1.6.8s0,0,0,0,0,0,0,0c0,0,0,0,0,0l-.4-1.8,1.2-1.2s0,0,0,0"/>
              <path class="cls-14" d="M117.2,67.8s-1.6-2.3-2-3c.4-.7,1.4-3.1,1.4-3.1,0,0,0,0,0,0,0,0,0,0,0,0l-3.3.8c-.5-.6-2.4-2.7-2.4-2.7,0,0,0,0,0,0,0,0,0,0,0,0l-.3,3.7-3.3,1.7s0,0,0,0c0,0,0,0,0,0,0,0,2.6,1,3.3,1.3.2.8.6,3.5.6,3.5,0,0,0,0,0,0,0,0,0,0,0,0,0,0,0,0,0,0l2.3-2.8c.8,0,3.6.6,3.6.6,0,0,0,0,0,0,0,0,0,0,0,0"/>
              <path class="cls-4" d="M114.8,66.3l-1-1.3.8-1.7s0,0,0,0c0,0,0,0,0,0l-1.8.4-1-1.2s0,0,0,0c0,0,0,0,0,0v1.7c-.1,0-1.7.8-1.7.8,0,0,0,0,0,0s0,0,0,0l1.6.7.4,1.7s0,0,0,0h0s0,0,0,0l1.1-1.4,1.7.2s0,0,0,0,0,0,0,0"/>
              <path class="cls-4" d="M64.4,65l-1.6-.8v-1.7c-.1,0-.2,0-.2,0,0,0,0,0,0,0l-1.1,1.2-1.8-.4s0,0,0,0c0,0,0,0,0,0l.8,1.7-1,1.3s0,0,0,0c0,0,0,0,0,0l1.7-.2,1.2,1.4s0,0,0,0h0s0,0,0,0l.3-1.7,1.6-.7s0,0,0,0,0,0,0,0"/>
              <path class="cls-14" d="M60.5,94.7s-1.8-2.1-2.3-2.6c.2-.8,1-3.4,1-3.4,0,0,0,0,0,0,0,0,0,0,0,0l-3.3,1.5c-.7-.4-3-2.1-3-2.1,0,0,0,0,0,0,0,0,0,0,0,0,0,0,.4,2.8.5,3.6l-2.7,2.1s0,0,0,0c0,0,0,0,0,0,0,0,2.6.6,3.3.8.2.8,1,3.4,1,3.4,0,0,0,0,0,0h0s0,0,0,0c0,0,1.4-2.5,1.8-3.1h3.6c0-.1,0-.1,0-.2,0,0,0,0,0,0"/>
              <path class="cls-4" d="M58.1,93.6l-1.1-1.3.4-1.7s0,0,0,0c0,0,0,0,0,0l-1.6.7-1.4-.9s0,0,0,0c0,0,0,0,0,0l.3,1.6-1.5,1.1s0,0,0,0c0,0,0,0,0,0l1.8.4.4,1.6s0,0,0,0h0s0,0,0,0l.9-1.4h1.8s0,0,0,0c0,0,0,0,0,0"/>
              <path class="cls-14" d="M123.7,93.6l-2.7-2.1c.2-.8.5-3.6.5-3.6,0,0,0,0,0,0,0,0,0,0-.1,0,0,0-2.3,1.6-2.9,2.1l-3.3-1.5s0,0,0,0c0,0,0,0,0,0,0,0,.8,2.6,1,3.4-.5.6-2.3,2.7-2.3,2.7,0,0,0,0,0,0,0,0,0,0,0,0h3.6c.4.8,1.8,3.2,1.8,3.2,0,0,0,0,0,0h0s0,0,0,0c0,0,.8-2.6,1-3.4.8-.2,3.4-.8,3.4-.8,0,0,0,0,0,0s0,0,0,0"/>
              <path class="cls-4" d="M121.2,93.1l-1.5-1.1.3-1.6s0,0,0,0c0,0,0,0-.1,0l-1.4.9-1.6-.7s0,0,0,0c0,0,0,0,0,0l.4,1.7-1.1,1.3s0,0,0,0c0,0,0,0,0,0h1.8s.9,1.5.9,1.5c0,0,0,0,0,0h0s0,0,0,0l.4-1.6,1.8-.4s0,0,0,0c0,0,0,0,0,0"/>
            </g>
          </g>
          <g>
            <path class="cls-4" d="M133.2,205.8c.4,1.3-.5,2.9-2.1,3.3-1.4.4-2.8,0-3.4-1.1.4.6,1.3.8,2.1.6,1.1-.3,1.7-1.3,1.4-2.2h0c-.4-1.4-.8-2.7-1.3-4.1-.1-.5-.6-.7-1.2-.5.7-1.1,1.3-2.2,2-3.3.8,2.4,1.6,4.9,2.4,7.3h0Z"/>
            <path class="cls-4" d="M77.4,215.2c.5,0,1-.3,1-.8,0-.5-.4-.9-.9-.9-.6,0-1,.3-1.1.8,0,.5.4.9,1,.9Z"/>
            <path class="cls-4" d="M51,196.8c-.5-.1-1,.1-1.1.6-.1.5.2.9.7,1.1.5.1,1-.1,1.1-.6.1-.4-.2-.9-.7-1.1Z"/>
            <path class="cls-4" d="M116.1,200c-.5.1-.8.6-.7,1,0,.5.6.8,1.1.6.5-.1.8-.6.7-1-.1-.5-.6-.8-1.1-.6h0Z"/>
            <path class="cls-4" d="M81.4,215.4c.6,0,1-.3,1-.8,0-.5-.4-.9-1-.9-.6,0-1,.3-1,.8,0,.5.4.9.9.9h0Z"/>
            <path class="cls-4" d="M75,215c.5,0,1-.3,1.1-.8,0-.5-.4-.9-.9-.9-.6,0-1,.3-1.1.8,0,.5.4.9.9.9h0Z"/>
            <path class="cls-4" d="M53.2,197.4c-.5-.1-1,.1-1.1.6-.1.5.2.9.7,1.1.5.1,1-.1,1.1-.6.1-.4-.2-.9-.7-1.1h0Z"/>
            <path class="cls-4" d="M118.3,199.5c-.5.1-.8.6-.7,1,.1.5.6.8,1.1.6.5-.1.8-.6.7-1-.1-.5-.6-.8-1.1-.6Z"/>
            <path class="cls-4" d="M153.4,196.6h0c-.3-.5-.5-1-.8-1.5h0c-2.1-4.1-4.1-8.1-6.1-12.2,1.2.3,2.3.6,3.5.9-.6.5-.5,1-.3,1.5,1.8,3.5,3.6,6.9,5.4,10.4-.6.3-1.2.6-1.8.9h0Z"/>
            <path class="cls-4" d="M105.2,211.1h0c-.6-5.1-1.2-10.1-1.8-15.2,1,.7,2,1.4,2.9,2-.7.3-.8.8-.7,1.3.5,3.9,1,7.8,1.6,11.6-.6,0-1.3.2-2,.2h0Z"/>
            <path class="cls-4" d="M64.9,210.3h0c.8-5.1,1.6-10.1,2.4-15.1.8.9,1.5,1.8,2.3,2.8-.7,0-1,.6-1.1,1.1-.6,3.9-1.1,7.8-1.7,11.6-.6-.1-1.3-.2-1.9-.3h0Z"/>
            <path class="cls-4" d="M127.3,206.7h0c-.1-.5-.3-1.1-.5-1.6h0c-1.2-4.4-2.5-8.7-3.7-13.1,1.1.5,2.2,1,3.3,1.5-.6.4-.7.9-.5,1.4,1.1,3.8,2.2,7.5,3.3,11.3-.6.2-1.3.4-1.9.5h0Z"/>
            <path class="cls-4" d="M125.4,207.3c-.7-2.7-1.4-5.5-2.2-8.2-.7,1-1.4,2-2.1,3,.8,0,1.1.4,1.2.9.3,1,.5,2.1.8,3.2-2.8.7-5.7,1.3-8.5,1.9-.4,0-.8.1-1.2.2-.6-.4-1.2-.7-1.8-1.1,1.3-1.4,2.2-3.8,1.7-5.8-.3,2.8-1.6,4.8-4.8,6,1.4.9,2.9,1.9,4.4,2.8.6-.1,1.3-.2,1.9-.4h0c3.5-.7,7.1-1.5,10.6-2.4h0Z"/>
            <path class="cls-4" d="M139.3,196.7h0c1.2.4,2.4.9,3.7,1.3.4.9.8,1.9,1.2,2.8-.9.4-1.9.8-2.8,1.1-.2-.5-.4-1.1-.6-1.6.3-.1.6-.2.9-.4,0-.2-.2-.4-.3-.6-.4-.1-.8-.3-1.2-.4h0c-.3-.7-.6-1.5-.9-2.2h0ZM134.8,204.4h0c-.2-.5-.4-1.1-.6-1.6h0c-1.5-4.3-2.9-8.6-4.4-12.9,1.1.5,2.2.9,3.3,1.4-.6.4-.6,1-.5,1.4,1.1,3.2,2.2,6.3,3.4,9.5.6-.2,1.3-.5,1.9-.7-.2-.4-.3-.9-.5-1.3.6-1.1,1.2-2.3,1.8-3.4.3.7.6,1.5.9,2.2-.2.4-.4.8-.6,1.1,0,.2.2.4.2.6.3-.1.6-.2.9-.4.2.5.4,1.1.6,1.6-1.6.6-3.1,1.2-4.7,1.8-.1,0-.3.1-.5.2-.5.2-.9.3-1.4.5h0Z"/>
            <path class="cls-4" d="M94.5,203.5h0c.7,0,1.6.7,1.9,1.2.7,0,1.5,0,2.2-.1-.9,1.9-1.8,3.8-2.7,5.6,1.7,0,3.4-.2,5.1-.4-.3-3.3-.6-6.7-.9-10,0-.5-.3-1-1-1.1.8-.9,1.6-1.8,2.4-2.6.6,5.1,1.1,10.2,1.6,15.3h0c-.6,0-1.1.1-1.7.2,0,0-.2,0-.3,0-2.1.2-4.3.4-6.4.5,0-1.1-.1-2.3-.2-3.4h0c.4-.7.7-1.4,1-2.1-.2,0-.4,0-.6,0,0-.5-.3-.7-.6-1h0c0-.7,0-1.4,0-2h0ZM88.7,213c0,1.4-1.3,2.6-3,2.5-1.4,0-2.6-.9-2.9-2.1.2.7,1,1.2,1.9,1.2,1.1,0,2-.8,2-1.7h0c0-1.4,0-2.8,0-4.3s-.4-.9-.9-.9c1-.9,1.9-1.7,2.8-2.5,0,1.7,0,3.4,0,5.1,1.7,0,3.4,0,5-.1-1.1-1.8-2.2-3.6-3.2-5.4.7,0,1.5,0,2.2,0,.2-.6,1.1-1.3,1.8-1.4,0,.7,0,1.4,0,2-.3.3-.5.5-.5,1.1-.2,0-.4,0-.6,0,.4.7.8,1.3,1.2,2,0,1.1.1,2.3.2,3.4-2.1.1-4.2.2-6.3.2v.9h0Z"/>
            <path class="cls-4" d="M56.1,208.7c1.6.4,3.2.7,4.8,1,0,0,.1,0,.2,0,.6.1,1.2.2,1.7.3h0c.9-5,1.7-10.1,2.6-15.1-1,.6-2,1.3-3.1,1.9.7.3.8.8.7,1.4-.6,3.3-1.2,6.6-1.8,9.9-.6-.1-1.3-.2-1.9-.4,0-.4.2-.9.3-1.3-.8-1-1.6-2.1-2.3-3.1-.2.8-.3,1.6-.5,2.3.3.4.5.7.8,1,0,.2,0,.5-.1.7-.3,0-.6-.1-1-.2-.1.6-.2,1.1-.4,1.7h0ZM43.7,203.5h0c0-.2.1-.4.2-.6.4-1.4-.5-3-2.1-3.6-.1,0-.2,0-.3-.1h0c-3.6-1.2-7.1-2.6-10.6-4.2.2-.5.5-1,.7-1.6.2-.5.7-.6,1.2-.4-.5-1.2-1.1-2.3-1.5-3.5-.9,2.1-1.9,4.1-2.8,6.2,4.2,1.9,8.5,3.7,12.8,5.2.6.2,1,.8.8,1.3h0c0,.2-.2.4-.2.6h0c-.2.6-.4,1.2-.6,1.8-.4.2-.8.3-1.2.5-.2-.4-.4-.8-.7-1.2.2-.6.4-1.2.6-1.7-.5-.2-.9-.3-1.4-.5-.2,0-.3-.1-.5-.2-3.5-1.3-7-2.7-10.4-4.3-.2.5-.5,1-.7,1.6,3.5,1.6,7,3,10.5,4.3,0,.3-.2.5-.3.8.7,1.1,1.3,2.3,2,3.4h0c1.2-.5,2.4-1,3.7-1.5,0-.3.2-.5.3-.8,1.4.5,2.7.9,4.1,1.3.3.4.6.7,1,1-.2-.3-.3-.6-.5-.9,1.2.3,2.3.6,3.4.9,1.6.4,3.2.8,4.8,1.2.1-.6.2-1.1.4-1.7-.3,0-.6-.1-.9-.2,0-.2,0-.4.2-.7.4-.2.8-.4,1.1-.6h0c.2-.8.3-1.5.5-2.3h0c-1.1.6-2.2,1.2-3.4,1.8,0,.4-.2.9-.3,1.3-.7-.2-1.3-.3-1.9-.5.5-1.9,1-3.7,1.4-5.6-1.1.5-2.2,1.1-3.4,1.6.7.4.7.9.6,1.4-.2.7-.4,1.4-.6,2.1-.3,0-.6-.1-.8-.2h0c-.5-.2-1.1-.3-1.6-.5,0-.7,0-1.4.2-2,.4-2.1,1-4.5-1.6-7.3-.8.4-1.5.7-2.3,1.1,1.9.6,2.6,2.3,2.9,3.6.3,1.7-.6,2.9-.2,4.3-.9-.3-1.8-.5-2.7-.8h0s0,0,0,0Z"/>
            <path class="cls-4" d="M72.8,209.7c.3,0,.6,0,1,0,0-.7.1-1.5.2-2.2-.3.1-.6.2-1,.2,0-.6.1-1.3.2-1.9.4-.2,1-.5,1.1-1.3.2-1.6.3-3.3.5-4.9,0-.5,0-1-.8-1.3,1-.7,1.9-1.4,2.9-2.1-.4,4.5-.8,9.1-1.1,13.6,1,0,2.1.2,3.1.2,0-.7.1-1.5.1-2.2,0-.5-.1-1-.9-1.2,1-.7,2-1.5,3-2.2-.1,1.9-.2,3.9-.3,5.8.6,0,1.3,0,1.9,0,0-.7,0-1.5,0-2.2,0-.5-.1-1-.9-1.2,1-.8,1.9-1.5,2.9-2.3,0,2.5-.1,5-.2,7.5-2.9,0-5.8-.2-8.7-.5h0c-1.1,0-2.2-.2-3.3-.3,0-.6.1-1.1.2-1.7h0ZM72.9,207.9h0c-.5,0-.9.4-.9.8,0,.3,0,.6-.1.9.3,0,.7,0,1,.1l-.2,1.7c-.2,0-.4,0-.6,0h0c-.8,0-1.6-.2-2.3-.3.1-.9.2-1.7.3-2.6.2-1.2,1.3-2.1,2.6-2.2,0,0,.3-.1.6-.2,0,.6-.1,1.3-.2,1.9,0,0,0,0-.1,0h0Z"/>
            <path class="cls-4" d="M23.2,195.1c.3.1.6.3.9.4.3-.6.6-1.3,1-1.9-.3,0-.7,0-1.1-.1.3-.6.6-1.1.9-1.7.5,0,1.2-.1,1.5-.8.7-1.5,1.4-2.9,2.2-4.4.2-.5.3-1-.3-1.5,1.2-.3,2.3-.6,3.5-1-2.2,4.6-4.4,9.2-6.6,13.9-.9-.4-1.8-.9-2.7-1.3.2-.5.5-1,.8-1.5h0ZM23.8,193.4h0c-.5-.1-1,0-1.2.4-.1.2-.3.5-.4.8.3.2.6.3.9.5-.3.5-.5,1-.8,1.5-.9-.5-1.8-.9-2.7-1.4.4-.8.8-1.5,1.2-2.3.6-1.1,2-1.6,3.3-1.1,0,0,.3,0,.6,0-.3.6-.6,1.1-.9,1.7,0,0,0,0-.2,0h0Z"/>
            <g>
              <path class="cls-4" d="M73.3,196.9c0-.5-.3-.9-.8-.9-.5,0-.9.3-1,.7,0,.5.3.9.8.9.5,0,.9-.3,1-.7h0Z"/>
              <path class="cls-4" d="M73.1,198.9c0-.5-.3-.9-.8-.9-.5,0-.9.3-1,.7,0,.5.3.9.8,1,.5,0,.9-.3,1-.8h0Z"/>
            </g>
            <g>
              <path class="cls-4" d="M25.5,184.2c-.2.4,0,1,.4,1.2.5.2,1,0,1.2-.4.2-.4,0-.9-.4-1.2-.4-.2-1,0-1.2.3h0Z"/>
              <path class="cls-4" d="M26.5,182.4c-.2.4,0,.9.4,1.2.4.2,1,0,1.2-.3.2-.4,0-.9-.4-1.2-.4-.2-1,0-1.2.3h0Z"/>
            </g>
            <path class="cls-4" d="M147,192.5c-1.2-2.7-2.5-5.3-3.8-8,1.3.4,2.5.8,3.8,1.2-.6.5-.7,1.1-.5,1.6.8,1.7,1.6,3.4,2.5,5.1-.3.6-.5,1.3-.8,1.9.7.2,1.3.4,2,.6.4.9.9,1.9,1.3,2.8-.9.4-1.8.9-2.7,1.3-.2-.5-.5-1-.7-1.6.3-.1.6-.3.9-.4-.1-.2-.2-.4-.3-.6-.4-.1-.8-.2-1.3-.4h0c-.3-.7-.7-1.5-1-2.2h0c.2-.4.4-.8.5-1.2h0ZM148.9,198.8c-.9.4-1.8.8-2.7,1.2-.4-.9-.8-1.9-1.2-2.8.3-.6.6-1.2.9-1.9-.7-.2-1.3-.4-2-.6,0-.1-.1-.2-.1-.3-.7-1.6-1.4-3.2-2.1-4.8-.2-.5-.8-.8-1.5-.7.6-1.2,1.1-2.4,1.6-3.7,1.2,2.7,2.4,5.4,3.6,8.1.4.1.8.3,1.2.4.3.7.7,1.4,1,2.2-.2.4-.4.8-.5,1.2,0,.2.2.4.3.6.3-.1.6-.3.9-.4.2.5.5,1,.7,1.6h0Z"/>
            <path class="cls-4" d="M150.8,200.8c.4.1.8.2,1.2.4-1.2.6-2.4,1.1-3.7,1.7.2-.3.3-.7.5-1,.1.1.3.1.6,0-.7-.6.1-1.6,1.1-1.3,0,0-.2,0-.3,0-.3.1-.4.4-.3.6s.4.3.6.2c.2-.1.4-.3.3-.5h0Z"/>
          </g>
        </g>
        <path class="cls-5" d="M383.6,75.2c.6-1.4,1.9-4.7,2.9-7.2h10c1,2.5,1.6,4.2,2.4,6.4.4,1.2.8,1.4,1.5,1.4s4-.2,4.9-.5v-.2c-.9-1.9-1.9-4.6-3.7-9.1-1.5-3.8-4.9-12.5-6.9-17.3-.2-.5-.6-.8-1-.8s-3,.2-4.6.5l.4.9c-1.7,4-8.5,20.4-10.8,25.7v.2c1,.3,2.9.6,3.9.6s1.1-.2,1.2-.6h0ZM391.5,54.2c.5,1.4,1.8,4.7,3.8,10.2h-7.7c1.5-3.8,2.7-7.3,3.8-10.2h0ZM291.7,51.7h7.9v23.3c0,.7.3.8.9.8,1.8,0,3.5-.1,4.7-.4,0-.9-.1-2.3-.1-5.4v-18.4h7c.9-.2,2.1-1.3,2.3-3.7h-15.7c-4.5,0-5.6,0-6.3-.2-.4.5-1,1.2-1.5,2.6-.3,1,0,1.3.8,1.3h0ZM280.8,74.9c0,.8.3.9.9.9,1,0,4-.1,4.7-.4,0-.9-.1-2.3-.1-5.4v-19.8c0-2-.1-2.4-.9-2.4s-4,.2-4.8.3c0,.8.1,2.6.1,5.6v21.1h0ZM318.8,74.5l.7.8c1.1.2,4,.4,7.8.4s5.4,0,6-.2c1.1-.6,1.9-1.6,2.3-3.5h0c-2.1,0-5.3,0-7.1,0s-3.1,0-4.1-.3v-8.6h6.7c1.5,0,2.5-.6,2.9-3.7h-9.6v-7.9h4.6c2,0,3.5,0,4.1-.3.5-.6,1.1-1.4,1.3-3.4h-10.7c-1.8,0-3.7.3-5,.6.1,1.8.1,3.4.1,5.5v20.3h0ZM340.5,75.1c2.8.6,5.5.8,8.7.8,9,0,15.8-5.1,15.8-14.6s-2.4-13.6-15.6-13.6-8,.6-9,.8c0,1.1,0,2,0,5v21.5h0ZM346,51.4c.7-.1,1.5-.2,2.8-.2,6.6,0,10.3,3.6,10.3,10.2s-5.8,11.1-9.7,11.1-2.4,0-3.4-.4c0,0,0-20.8,0-20.8ZM219.7,62.9c0,9.5,4,13.3,11.4,13.3s11.9-1.8,11.9-14.1v-6.2c0-3.7,0-6.2.1-8-.9,0-2.6,0-3.9.2-.6,0-1,.3-1,1.1v13.2c0,8.4-3,9.9-6.6,9.9s-6.6-1.3-6.6-9.5v-12.3c0-2.2-.1-2.6-.9-2.6s-3.9.2-4.7.3c0,.9.1,2.7.1,5.7v9h0ZM250.2,67.8c0,3.7,0,6.2-.1,8,1.3,0,2.7,0,3.5-.2.7-.1,1-.3,1-1.2v-11.5c0-2.2,0-4.5-.2-9,1.8,3.4,3.1,5.8,5.4,9.6,3.5,5.4,5.7,8.8,8,12,.3.4.6.6,1.1.6,1.3,0,3.8-.5,4.2-.7v-19.4c0-3.7,0-6.2.1-8.1-1,0-2.2,0-3.6.2-.6,0-.9.3-.9,1.3v12.3c0,2.2,0,3.9.2,7.3-1.1-2.2-2.7-4.7-4.7-7.8-3.2-4.9-6.8-10.4-8.2-12.4-.4-.5-.8-.8-1.2-.8-.8,0-4.6.2-5.4.3v.2l.8,1.1v18.3h0ZM602.7,75.2c.6-1.4,1.8-4.7,2.9-7.2h10c1,2.5,1.6,4.2,2.4,6.4.4,1.2.8,1.4,1.5,1.4s4-.2,4.9-.5v-.2c-.9-1.9-1.9-4.6-3.7-9.1-1.5-3.8-4.9-12.5-6.9-17.3-.2-.5-.6-.8-1-.8s-3,.2-4.6.5l.3.9c-1.7,4-8.5,20.4-10.8,25.7v.2c1,.3,2.9.6,3.9.6s1.1-.2,1.2-.6h0ZM610.6,54.2c.5,1.4,1.8,4.7,3.8,10.2h-7.7c1.5-3.8,2.7-7.3,3.8-10.2h0ZM560.4,74.9c0,.8.3.9.9.9,1,0,4-.1,4.7-.4,0-.9-.1-2.3-.1-5.4v-19.8c0-2-.1-2.4-.9-2.4s-4,.2-4.8.3c0,.8.1,2.6.1,5.6v21.1h0ZM573.4,75.8c.9,0,3.3,0,4.5-.2.8,0,1-.3,1-1.1v-10.2h.8c1.5,0,2.3.3,3.7,2.9,1.8,3.4,2.6,5.2,3.8,6.7,1.1,1.5,2.3,2,3.9,2s3.2-.2,3.6-.4v-.2c-1.1-1.2-2.5-3.2-4.6-6.9-1.5-2.6-2.9-4.8-3.9-5.7,1.8-.8,5.3-2.8,5.3-7s-3.5-8-10.5-8-6.4.5-7.6.8c0,1.2,0,2.3,0,4.5v14.7c0,3.7,0,6.3-.1,8h0ZM578.9,51.2c.5,0,1.3-.1,1.9-.1,2.7,0,5,1.5,5,5.2s-1.8,4.3-2.7,4.6c-.6.3-3,.4-4.2.3v-10h0ZM679.3,72.2c-2.1,0-4.8-1-6.3-2.1-.4.3-1.1,1.9-1.1,2.8s.3,1,1,1.5c1.1.8,3.4,1.7,6.4,1.7,5.2,0,10-2.9,10-8.4s-2.2-5.8-6.2-8.1c-4.1-2.3-5.5-3.4-5.5-5.5s1.7-3,4-3,3.3.6,4.3,1.1c1.5,0,2.2-1.7,2.2-2.8-1.1-1.1-4-2.1-6.3-2.1h0c-7.3,0-9.4,4.8-9.4,7.8s.9,5.5,6,8.2c4.4,2.4,5.5,3.5,5.5,5.5s-1.8,3.4-4.5,3.4h0ZM651.4,74.5l.7.8c1.1.2,4,.4,7.8.4s5.4,0,6-.2c1.1-.6,1.9-1.6,2.3-3.5h0c-2.1,0-5.3,0-7.1,0s-3.1,0-4.1-.3v-8.6h6.7c1.5,0,2.5-.6,2.9-3.7h-9.6v-7.9h4.6c2,0,3.5,0,4.1-.3.5-.6,1.1-1.4,1.3-3.4h-10.7c-1.8,0-3.7.3-5,.6.1,1.8.1,3.4.1,5.5v20.3ZM625.1,47.8c-.4.5-1,1.2-1.5,2.6-.3,1,0,1.3.8,1.3h7.9v23.3c0,.7.3.8.9.8,1.8,0,3.5-.1,4.7-.4,0-.9-.1-2.3-.1-5.4v-18.4h7c.9-.2,2.1-1.3,2.3-3.7h-15.7c-4.5,0-5.6,0-6.3-.2h0ZM439,75.2c.6-1.4,1.9-4.7,2.9-7.2h10c1,2.5,1.6,4.2,2.4,6.4.4,1.2.8,1.4,1.5,1.4s4-.2,4.9-.5v-.2c-.9-1.9-1.9-4.6-3.7-9.1-1.5-3.8-4.9-12.5-6.9-17.3-.2-.5-.6-.8-1-.8s-3,.2-4.6.5l.4.9c-1.7,4-8.5,20.4-10.8,25.7v.2c1,.3,2.9.6,3.9.6s1.1-.2,1.2-.6h0ZM447,54.2c.5,1.4,1.8,4.7,3.8,10.2h-7.7c1.5-3.8,2.7-7.3,3.8-10.2h0ZM465.3,75.2c1.9.4,5.2.8,7.4.8,6.9,0,11.8-3,11.8-8.9s-1.8-5.5-5.6-6.6c2-1.1,3.9-3.1,3.9-5.8s-1.3-6.9-9.5-6.9-7,.5-8,.8c.1,2,.1,3.3.1,5.6v21.1h0ZM470.7,51.3c.4,0,1.5-.2,2.2-.2,2.8,0,4.6,1.6,4.6,4.4s-1,3.7-2.1,4.3c-2.1,0-3.4,0-4.7.2v-8.7h0ZM470.7,63.1c.7-.1,1.4-.1,2-.1,3.7,0,5.8,1.6,5.8,4.5s-2.3,5.2-5.5,5.2-1.8,0-2.3-.2v-9.4h0ZM525.4,75.8c.5,0,.7-.2.8-.7.7-5.2,2-15.2,2.6-20.6,2,6,5.8,17.6,6.9,21.1.9,0,1.9-.2,2.7-.3,1-.2,1.3-.6,1.6-1.4,2.8-8.3,5.4-15.6,6.7-19.4l1.3,11c.5,4.7.8,7,1,9.3,0,.9.7,1.1,1.2,1.1.9,0,3.7-.2,4.4-.4-.4-2.1-.9-5.4-1.6-10l-2.3-16.2c-.1-1.1-.4-1.4-.8-1.4-1.1,0-4,.3-4.7.6v.7c-1.8,4.5-4.8,12.4-7,18.2l-5.9-16.4c-.8-2.2-1.1-2.9-1.8-3-2.1,0-3.7.4-4.8.6v.8c-1.6,10-3.3,21.4-4.1,26.1.7.4,2.7.4,3.9.4h0ZM500.6,74.5l.7.8c1.1.2,4,.4,7.8.4s5.4,0,6-.2c1.1-.6,1.9-1.6,2.3-3.5h0c-2.1,0-5.3,0-7.1,0s-3.1,0-4.1-.3v-8.6h6.7c1.5,0,2.5-.6,2.9-3.7h-9.6v-7.9h4.6c2,0,3.5,0,4.1-.3.5-.6,1.1-1.4,1.3-3.4h-10.7c-1.8,0-3.7.3-5,.6.1,1.8.1,3.4.1,5.5v20.3h0ZM422.5,62.7c1.8-.8,5.3-2.8,5.3-7s-3.5-8-10.5-8-6.4.5-7.6.8c0,1.2,0,2.3,0,4.5v14.7c0,3.7,0,6.3-.1,8.1.9,0,3.3,0,4.5-.2.8,0,1-.3,1-1.1v-10.2h.8c1.5,0,2.3.3,3.6,2.9,1.8,3.4,2.6,5.2,3.8,6.7,1.1,1.5,2.3,2,3.9,2s3.2-.2,3.6-.4v-.2c-1.1-1.2-2.5-3.2-4.6-6.9-1.5-2.6-2.9-4.8-3.9-5.7h0ZM419.5,60.8c-.6.3-3,.4-4.2.3v-10c.5,0,1.3-.1,1.9-.1,2.7,0,5,1.5,5,5.2s-1.8,4.3-2.7,4.6h0Z"/>
        <g>
          <path class="cls-5" d="M244.9,106.2c.7-.4,3.6-.6,4.7-.6s.7.3.8,1.4l2.3,16.2c.7,4.6,1.2,7.9,1.6,10-.8.2-3.5.4-4.4.4s-1.1-.2-1.2-1.1c-.3-2.2-.5-4.6-1-9.3l-1.3-11.1c-1.2,3.8-3.8,11.1-6.6,19.4-.3.9-.6,1.2-1.6,1.4-.8.1-1.9.3-2.7.3-1.1-3.4-4.9-15.1-6.9-21.1-.6,5.4-1.9,15.5-2.6,20.6,0,.5-.3.7-.8.7-1.2,0-3.2,0-3.9-.4.8-4.7,2.5-16.1,4.3-26.1v-.8c1-.2,2.5-.6,4.7-.6.7.2,1,.8,1.8,3l5.9,16.4c2.2-5.8,5.1-13.7,7-18.2v-.7h0Z"/>
          <path class="cls-5" d="M259.7,111.5c0-2.9,0-4.8-.1-5.6.8-.1,3.8-.4,4.8-.4s.9.4.9,2.4v19.8c0,3.1,0,4.5.1,5.4-.8.2-3.7.4-4.7.4s-.9-.1-.9-.9v-21.1h0Z"/>
          <path class="cls-5" d="M271.5,106.1v-.2c.8-.1,4.6-.4,5.4-.4s.8.3,1.2.8c1.4,2,5,7.5,8.2,12.4,2,3.1,3.6,5.6,4.7,7.8-.3-3.4-.2-5.1-.2-7.3v-12.3c0-1,.3-1.2.9-1.3,1.4-.1,2.5-.2,3.6-.2,0,1.9-.1,4.4-.1,8.1v19.4c-.4.2-2.9.7-4.2.7s-.8-.2-1.1-.6c-2.3-3.2-4.5-6.6-8-12-2.3-3.7-3.6-6.2-5.4-9.6.3,4.4.2,6.7.2,9v11.5c0,.9-.3,1.1-1,1.2-.8.1-2.2.2-3.5.2,0-1.8.1-4.3.1-8v-18.3l-.8-1.1h0Z"/>
          <path class="cls-5" d="M302.2,111.5c0-2.9,0-4.8-.1-5.6.8-.1,3.8-.4,4.8-.4s.9.4.9,2.4v19.8c0,3.1,0,4.5.1,5.4-.8.2-3.7.4-4.7.4s-.9-.1-.9-.9v-21.1h0Z"/>
          <path class="cls-5" d="M322.5,105.1c2.3,0,5.2,1,6.3,2.1,0,1.1-.7,2.9-2.2,2.8-1-.5-2.9-1.1-4.3-1.1-2.3,0-4,1.1-4,3s1.5,3.1,5.5,5.5c4,2.2,6.2,3.9,6.2,8.1s-4.8,8.4-10,8.4-5.3-.9-6.4-1.7c-.8-.5-1-.9-1-1.5,0-.9.7-2.6,1.1-2.8,1.6,1.1,4.2,2.1,6.3,2.1s4.5-1.1,4.5-3.4-1-3-5.5-5.5c-5.1-2.8-6-5.6-6-8.2s2.1-7.8,9.4-7.8h0,0Z"/>
          <path class="cls-5" d="M340.8,109.4h-7.9c-.7,0-1.1-.3-.8-1.3.5-1.3,1-2.1,1.5-2.6.7.2,1.9.2,6.3.2h15.7c-.2,2.3-1.4,3.4-2.3,3.6h-7v18.4c0,3,0,4.5.1,5.4-1.2.2-3,.4-4.7.4s-.9-.1-.9-.8v-23.3Z"/>
          <path class="cls-5" d="M364.8,132.2c0,.9-.3,1.1-1,1.1-1.2.1-3.6.2-4.5.2,0-1.8.1-4.4.1-8.1v-14.7c0-2.2,0-3.3,0-4.5,1.1-.3,5.5-.8,7.6-.8,7,0,10.5,2.4,10.5,8s-3.5,6.2-5.3,7c1,.9,2.4,3.1,3.9,5.7,2.1,3.7,3.5,5.7,4.6,6.9v.2c-.4.3-2,.4-3.6.4s-2.8-.4-3.9-2c-1.2-1.5-2.1-3.3-3.8-6.7-1.4-2.5-2.2-2.9-3.6-2.9h-.8v10.2h0ZM364.8,118.9c1.2.1,3.6,0,4.2-.3.9-.4,2.7-1.7,2.7-4.6s-2.3-5.2-5-5.2-1.4,0-1.9.1v10h0Z"/>
          <path class="cls-5" d="M389.6,122.3c0-.8,0-1.5-.4-2-2.4-4.1-6.3-10-8.9-13.8h0c1.5-.6,3.6-.9,4.8-.9s1.1.2,2.2,2.1c1.5,2.5,3.7,6.3,5.6,9.5,1.9-2.9,6.1-10,7-11.5,1.6,0,3.1.2,3.7.4.7.3.6.8,0,1.8-1.1,1.8-7.6,11.4-8.1,12.2-.4.6-.5,1.3-.5,1.9v6c0,3,0,4.3.1,5.3-1,.2-2.4.4-4.8.4s-.8-.1-.8-.8v-10.4h0Z"/>
          <path class="cls-5" d="M431,105.1c8.9,0,14,6.4,14,14.2s-4.9,14.6-14.2,14.6-14.2-7.5-14.2-14.2,5.3-14.6,14.3-14.6h0ZM430.4,108.5c-4.3,0-7.9,3.5-7.9,10.7s4,11.3,8.6,11.3,8-4,8-10.8-3.2-11.1-8.7-11.1h0,0Z"/>
          <path class="cls-5" d="M450.8,111.1c0-1.9,0-3.1-.1-4.7.8-.2,3.4-.6,5.3-.7,1.6,0,9.1,0,11.2,0-.3,2-1,2.8-1.5,3.4-.6.3-1.5.3-3.4.3h-5.9v8.8h10c-.4,3.3-1.5,3.6-3.2,3.6h-6.7c0,4.4,0,8.1.1,11.4-.8.2-3,.4-4.7.4s-1-.1-1-.8v-21.6h0Z"/>
          <path class="cls-5" d="M498.8,117.1v-10.1c0-1,.3-1.1,1.1-1.2,1.1,0,3.2-.1,4.6-.2,0,1.7-.1,4.3-.1,8v14.2c0,3.1,0,4.5.1,5.4-.9.2-3.7.4-4.7.4s-.9-.1-.9-.8v-12.1c-.9,0-2.3.1-5,.1h-6.7v11.4c0,.9-.3,1.1-1.4,1.2-1.2.1-3.3.2-4.3.2,0-1.8.1-4.4.1-8.1v-13.9c0-3,0-4.8-.1-5.6,1.1-.2,3.8-.4,4.7-.4s.9.4.9,2.4v9.1h11.8,0Z"/>
          <path class="cls-5" d="M511.8,111.5c0-2.9,0-4.8-.1-5.6.8-.1,3.8-.4,4.8-.4s.9.4.9,2.4v19.8c0,3.1,0,4.5.1,5.4-.8.2-3.7.4-4.7.4s-.9-.1-.9-.9v-21.1h0Z"/>
          <path class="cls-5" d="M542.3,124.2c0-1.9,0-2.9-.2-3.9,1.4-.2,3.5-.7,4.8-.7s.9.3.9,1.2v9.9c-.8.7-2.3,1.6-3.5,2.2-1.5.4-3.9.9-6,.9-7.4,0-15.2-3.3-15.2-14.2s7-14.6,15.6-14.6,8,1.5,9.1,2.6c0,1.7-1.2,3-2.6,2.8-2-1-4.3-1.4-6.6-1.4-5.4,0-9.6,3.5-9.6,10.4s5.1,11.1,10.2,11.1,2.5-.3,3.1-.5v-5.8h0Z"/>
          <path class="cls-5" d="M571.6,117.1v-10.1c0-1,.3-1.1,1.1-1.2,1.1,0,3.2-.1,4.6-.2,0,1.7-.1,4.3-.1,8v14.2c0,3.1,0,4.5.1,5.4-.9.2-3.7.4-4.7.4s-.9-.1-.9-.8v-12.1c-.9,0-2.3.1-5,.1h-6.7v11.4c0,.9-.3,1.1-1.4,1.2-1.2.1-3.3.2-4.3.2,0-1.8.1-4.4.1-8.1v-13.9c0-3,0-4.8-.1-5.6,1.1-.2,3.8-.4,4.7-.4s.9.4.9,2.4v9.1h11.8,0Z"/>
          <path class="cls-5" d="M584.5,111.9c0-2.1,0-3.7-.1-5.5,1.2-.3,3.2-.6,5-.6h10.7c-.3,2-.8,2.8-1.3,3.4-.7.3-2.2.3-4.1.3h-4.6v7.9h9.6c-.4,3.1-1.4,3.6-2.9,3.6h-6.7v8.6c1,.2,2.4.3,4.1.3s5,0,7.1-.2h0c-.4,2-1.2,3-2.3,3.6-.6.1-2.6.2-6,.2s-6.8-.2-7.8-.4l-.7-.8v-20.3h0Z"/>
          <path class="cls-5" d="M611.5,132.2c0,.9-.3,1.1-1,1.1-1.2.1-3.7.2-4.5.2,0-1.8.1-4.4.1-8.1v-14.7c0-2.2,0-3.3,0-4.5,1.1-.3,5.5-.8,7.6-.8,7,0,10.5,2.4,10.5,8s-3.5,6.2-5.3,7c1,.9,2.4,3.1,3.9,5.7,2.1,3.7,3.5,5.7,4.6,6.9v.2c-.3.3-2,.4-3.6.4s-2.8-.4-3.9-2c-1.2-1.5-2.1-3.3-3.8-6.7-1.4-2.5-2.2-2.9-3.7-2.9h-.8v10.2h0ZM611.5,118.9c1.2.1,3.6,0,4.2-.3.9-.4,2.7-1.7,2.7-4.6s-2.3-5.2-5-5.2-1.4,0-1.9.1v10h0Z"/>
          <path class="cls-5" d="M641,111.9c0-2.1,0-3.7-.1-5.5,1.2-.3,3.2-.6,5-.6h10.7c-.3,2-.8,2.8-1.3,3.4-.7.3-2.2.3-4.1.3h-4.6v7.9h9.6c-.4,3.1-1.4,3.6-2.9,3.6h-6.7v8.6c1,.2,2.4.3,4.1.3s5,0,7.1-.2h0c-.4,2-1.2,3-2.3,3.6-.6.1-2.6.2-6,.2s-6.8-.2-7.8-.4l-.7-.8v-20.3h0Z"/>
          <path class="cls-5" d="M662.6,111.3c0-3,0-3.9,0-5,1-.2,5.4-.8,9-.8,13.2,0,15.6,8,15.6,13.6,0,9.5-6.8,14.6-15.8,14.6s-5.9-.3-8.7-.8v-21.5h0ZM668.1,129.9c1.1.3,2.2.4,3.4.4,4,0,9.7-1.9,9.7-11.1s-3.8-10.2-10.3-10.2-2.2,0-2.8.2v20.8h0Z"/>
          <path class="cls-5" d="M698.1,120.4c0,8.2,3.5,9.5,6.6,9.5s6.6-1.5,6.6-9.9v-13.2c0-.8.3-1,1-1.1,1.3-.1,3-.2,3.9-.2,0,1.8-.1,4.4-.1,8v6.2c0,12.3-6.5,14.1-11.9,14.1s-11.4-3.8-11.4-13.3v-9c0-2.9,0-4.8-.1-5.7.8-.1,3.8-.4,4.7-.4s.9.4.9,2.6v12.3h0Z"/>
          <path class="cls-5" d="M744.7,128.9c-.1,1.5-.7,2.8-1.5,3.5-1.1.7-3.4,1.5-6.4,1.5-10,0-15.5-5.7-15.5-14.1s6.9-14.7,15.6-14.7,7.4,1.4,8.1,2.2c0,1.5-.9,3-2.3,2.8-1.3-.6-3.4-1.2-5.8-1.2-5.3,0-9.7,3.5-9.7,10.5s3.8,10.6,10.8,10.6,5.3-.8,6.4-1.1h.1q0,0,0,0Z"/>
          <path class="cls-5" d="M755.7,125.7c-1,2.6-2.3,5.8-2.9,7.2-.2.4-.5.6-1.2.6s-2.9-.3-3.9-.6v-.2c2.3-5.4,9.2-21.7,10.8-25.7l-.3-.9c1.6-.4,4.1-.5,4.6-.5s.8.3,1,.8c2,4.8,5.4,13.5,6.9,17.3,1.8,4.5,2.9,7.3,3.7,9.1v.2c-1,.3-4,.5-4.9.5s-1.1-.2-1.5-1.4c-.8-2.2-1.4-3.9-2.4-6.4h-10ZM764.6,122c-2-5.5-3.3-8.8-3.8-10.2-1.1,2.9-2.3,6.4-3.8,10.2h7.7Z"/>
          <path class="cls-5" d="M782.3,109.4h-7.9c-.7,0-1.1-.3-.8-1.3.5-1.3,1-2.1,1.5-2.6.7.2,1.9.2,6.3.2h15.7c-.2,2.3-1.4,3.4-2.3,3.6h-7v18.4c0,3,0,4.5.1,5.4-1.2.2-3,.4-4.7.4s-.9-.1-.9-.8v-23.3h0Z"/>
          <path class="cls-5" d="M801.3,111.5c0-2.9,0-4.8-.1-5.6.8-.1,3.8-.4,4.8-.4s.9.4.9,2.4v19.8c0,3.1,0,4.5.1,5.4-.8.2-3.7.4-4.7.4s-.9-.1-.9-.9v-21.1h0Z"/>
          <path class="cls-5" d="M827,105.1c8.9,0,14,6.4,14,14.2s-4.9,14.6-14.2,14.6-14.2-7.5-14.2-14.2,5.3-14.6,14.3-14.6h0ZM826.5,108.5c-4.3,0-7.9,3.5-7.9,10.7s4,11.3,8.6,11.3,8-4,8-10.8-3.2-11.1-8.7-11.1h0,0Z"/>
          <path class="cls-5" d="M846.1,106.1v-.2c.8-.1,4.6-.4,5.4-.4s.8.3,1.2.8c1.4,2,5,7.5,8.2,12.4,2,3.1,3.6,5.6,4.7,7.8-.3-3.4-.2-5.1-.2-7.3v-12.3c0-1,.3-1.2.9-1.3,1.4-.1,2.5-.2,3.6-.2,0,1.9-.1,4.4-.1,8.1v19.4c-.4.2-2.9.7-4.2.7s-.8-.2-1.1-.6c-2.3-3.2-4.5-6.6-8-12-2.3-3.7-3.6-6.2-5.4-9.6.3,4.4.2,6.7.2,9v11.5c0,.9-.3,1.1-1,1.2-.8.1-2.2.2-3.5.2,0-1.8.1-4.3.1-8v-18.3l-.8-1.1h0Z"/>
          <path class="cls-5" d="M247.9,189c-.8.3-2.6.8-4.9.8s-1.4-.3-1.9-.8c-.8-.8-2-1.9-3-2.7-2.6,2.7-5.4,3.5-7.9,3.5-5.3,0-8.6-2.9-8.6-7.6s3.3-5.7,5.4-7c-1.9-1.9-2.7-4-2.7-6,0-3.8,3-6.9,7.4-6.9s6.9,1.9,6.9,6.1-3,5.2-5.3,6.7c2,1.8,4.8,4.3,5.5,5,1-1.9,2.5-5.2,3.8-7.4.6-.9,1.1-1.5,1.9-1.5,1.8,0,2.9.7,3.4,1.1v.2c-1.3,1.4-3.6,4.9-6.6,10.2,4.5,4.1,6.1,5.7,6.7,6.3v.2s0,0,0,0ZM231.7,185.9c1.4,0,3-.6,4.1-1.9-1.6-1.5-5.6-5.3-7-6.9-1,.7-2.1,2.1-2.1,4.1s1.9,4.7,4.9,4.7h0ZM228.8,168.5c0,1.7.8,3.1,2.5,4.6,1.9-1.3,2.8-2.7,2.8-4.6s-1.2-3.3-2.6-3.3-2.7,1.1-2.7,3.2h0s0,0,0,0Z"/>
          <path class="cls-5" d="M271,161.1c2.3,0,5.2,1,6.3,2.1,0,1.1-.7,2.9-2.2,2.8-1-.5-2.9-1.1-4.3-1.1-2.3,0-4,1.1-4,3s1.5,3.1,5.5,5.5c4,2.2,6.2,3.9,6.2,8.1s-4.8,8.4-10,8.4-5.3-.9-6.4-1.7c-.8-.5-1-.9-1-1.5,0-.9.7-2.6,1.1-2.8,1.6,1.1,4.2,2.1,6.3,2.1s4.5-1.1,4.5-3.4-1-3-5.5-5.5c-5.1-2.8-6-5.6-6-8.2s2.1-7.8,9.4-7.8h0,0Z"/>
          <path class="cls-5" d="M306,185c-.1,1.5-.7,2.8-1.5,3.5-1.1.7-3.4,1.5-6.4,1.5-10,0-15.5-5.7-15.5-14.1s6.9-14.7,15.6-14.7,7.4,1.4,8.1,2.2c0,1.5-.9,3-2.3,2.8-1.3-.6-3.4-1.2-5.8-1.2-5.3,0-9.7,3.5-9.7,10.5s3.8,10.6,10.8,10.6,5.3-.8,6.4-1.1h.1Z"/>
          <path class="cls-5" d="M311.1,167.5c0-2.9,0-4.8-.1-5.6.8-.1,3.8-.4,4.8-.4s.9.4.9,2.4v19.8c0,3.1,0,4.5.1,5.4-.8.2-3.7.4-4.7.4s-.9-.1-.9-.9v-21.1h0Z"/>
          <path class="cls-5" d="M324.1,167.9c0-2.1,0-3.7-.1-5.5,1.2-.3,3.2-.6,5-.6h10.7c-.3,2-.8,2.8-1.3,3.4-.7.3-2.2.3-4.1.3h-4.6v7.9h9.6c-.4,3.1-1.4,3.6-2.9,3.6h-6.7v8.6c1,.2,2.4.3,4.1.3s5,0,7.1-.2h0c-.4,2-1.2,3-2.3,3.6-.6.1-2.6.2-6,.2s-6.8-.2-7.8-.4l-.7-.8v-20.3h0Z"/>
          <path class="cls-5" d="M345,162.2v-.2c.8-.1,4.6-.4,5.4-.4s.8.3,1.2.8c1.4,2,5,7.5,8.2,12.4,2,3.1,3.6,5.6,4.7,7.8-.3-3.4-.2-5.1-.2-7.3v-12.3c0-1,.3-1.2.9-1.3,1.4-.1,2.5-.2,3.6-.2,0,1.9-.1,4.4-.1,8.1v19.4c-.4.2-2.9.7-4.2.7s-.8-.2-1.1-.6c-2.3-3.2-4.5-6.6-8-12-2.3-3.7-3.6-6.2-5.4-9.6.3,4.4.2,6.7.2,9v11.5c0,.9-.3,1.1-1,1.2-.8.1-2.2.2-3.5.2,0-1.8.1-4.3.1-8v-18.3l-.8-1.1h0Z"/>
          <path class="cls-5" d="M381.9,165.4h-7.9c-.7,0-1.1-.3-.8-1.3.5-1.3,1-2.1,1.5-2.6.7.2,1.9.2,6.3.2h15.7c-.2,2.3-1.4,3.4-2.3,3.6h-7v18.4c0,3,0,4.5.1,5.4-1.2.2-3,.4-4.7.4s-.9-.1-.9-.8v-23.3h0Z"/>
          <path class="cls-5" d="M400.9,167.5c0-2.9,0-4.8-.1-5.6.8-.1,3.8-.4,4.8-.4s.9.4.9,2.4v19.8c0,3.1,0,4.5.1,5.4-.8.2-3.7.4-4.7.4s-.9-.1-.9-.9v-21.1h0Z"/>
          <path class="cls-5" d="M413.9,167.1c0-1.9,0-3.1-.1-4.7.8-.2,3.4-.6,5.3-.7,1.6,0,9.1,0,11.2,0-.4,2-1,2.8-1.5,3.4-.6.3-1.5.3-3.4.3h-5.9v8.8h10c-.4,3.3-1.5,3.6-3.2,3.6h-6.7c0,4.4,0,8.1.1,11.4-.8.2-3,.4-4.7.4s-1-.1-1-.8v-21.6h0Z"/>
          <path class="cls-5" d="M434.8,167.5c0-2.9,0-4.8-.1-5.6.8-.1,3.8-.4,4.8-.4s.9.4.9,2.4v19.8c0,3.1,0,4.5.1,5.4-.8.2-3.7.4-4.7.4s-.9-.1-.9-.9v-21.1h0Z"/>
          <path class="cls-5" d="M469.5,185c-.1,1.5-.7,2.8-1.5,3.5-1.1.7-3.4,1.5-6.4,1.5-10,0-15.5-5.7-15.5-14.1s6.9-14.7,15.6-14.7,7.4,1.4,8.1,2.2c0,1.5-.9,3-2.3,2.8-1.3-.6-3.4-1.2-5.8-1.2-5.3,0-9.7,3.5-9.7,10.5s3.8,10.6,10.8,10.6,5.3-.8,6.4-1.1h.1q0,0,0,0Z"/>
          <path class="cls-5" d="M490,188.2c0,.9-.3,1.1-1,1.1-1.2.1-3.7.2-4.5.2,0-1.8.1-4.4.1-8.1v-14.7c0-2.2,0-3.3,0-4.5,1.1-.3,5.5-.8,7.6-.8,7,0,10.5,2.4,10.5,8s-3.5,6.2-5.3,7c1,.9,2.4,3.1,3.9,5.7,2.1,3.7,3.5,5.7,4.6,6.9v.2c-.3.3-2,.4-3.6.4s-2.8-.4-3.9-2c-1.2-1.5-2.1-3.3-3.8-6.7-1.4-2.5-2.2-2.9-3.7-2.9h-.8v10.2h0ZM490,174.9c1.2.1,3.6,0,4.2-.3.9-.4,2.7-1.7,2.7-4.6s-2.3-5.2-5-5.2-1.4,0-1.9.1v10h0Z"/>
          <path class="cls-5" d="M509.9,167.9c0-2.1,0-3.7-.1-5.5,1.2-.3,3.2-.6,5-.6h10.7c-.3,2-.8,2.8-1.3,3.4-.7.3-2.2.3-4.1.3h-4.6v7.9h9.6c-.4,3.1-1.4,3.6-2.9,3.6h-6.7v8.6c1,.2,2.4.3,4.1.3s5,0,7.1-.2h0c-.4,2-1.2,3-2.3,3.6-.6.1-2.6.2-6,.2s-6.8-.2-7.8-.4l-.7-.8v-20.3h0Z"/>
          <path class="cls-5" d="M540.2,161.1c2.3,0,5.2,1,6.3,2.1,0,1.1-.7,2.9-2.2,2.8-1-.5-2.9-1.1-4.3-1.1-2.3,0-4,1.1-4,3s1.5,3.1,5.5,5.5c4,2.2,6.2,3.9,6.2,8.1s-4.8,8.4-10,8.4-5.3-.9-6.4-1.7c-.8-.5-1-.9-1-1.5,0-.9.7-2.6,1.1-2.8,1.6,1.1,4.2,2.1,6.3,2.1s4.5-1.1,4.5-3.4-1-3-5.5-5.5c-5.1-2.8-6-5.6-6-8.2s2.1-7.8,9.4-7.8h0,0Z"/>
          <path class="cls-5" d="M553,167.9c0-2.1,0-3.7-.1-5.5,1.2-.3,3.2-.6,5-.6h10.7c-.3,2-.8,2.8-1.3,3.4-.7.3-2.2.3-4.1.3h-4.6v7.9h9.6c-.4,3.1-1.4,3.6-2.9,3.6h-6.7v8.6c1,.2,2.4.3,4.1.3s5,0,7.1-.2h0c-.4,2-1.2,3-2.3,3.6-.6.1-2.6.2-6,.2s-6.8-.2-7.8-.4l-.7-.8v-20.3h0Z"/>
          <path class="cls-5" d="M580.8,181.7c-1,2.6-2.3,5.8-2.9,7.2-.2.4-.5.6-1.2.6s-2.9-.3-3.9-.6v-.2c2.3-5.4,9.2-21.7,10.8-25.7l-.3-.9c1.6-.4,4.1-.5,4.6-.5s.8.3,1,.8c2,4.8,5.4,13.5,6.9,17.3,1.8,4.5,2.9,7.3,3.7,9.1v.2c-1,.3-4,.5-4.9.5s-1.1-.2-1.5-1.4c-.8-2.2-1.4-3.9-2.4-6.4h-10ZM589.6,178c-2-5.5-3.3-8.8-3.8-10.2-1.1,2.9-2.3,6.4-3.8,10.2h7.7Z"/>
          <path class="cls-5" d="M609.4,188.2c0,.9-.3,1.1-1,1.1-1.2.1-3.7.2-4.5.2,0-1.8.1-4.4.1-8.1v-14.7c0-2.2,0-3.3,0-4.5,1.1-.3,5.5-.8,7.6-.8,7,0,10.5,2.4,10.5,8s-3.5,6.2-5.3,7c1,.9,2.4,3.1,3.9,5.7,2.1,3.7,3.5,5.7,4.6,6.9v.2c-.3.3-2,.4-3.6.4s-2.8-.4-3.9-2c-1.2-1.5-2.1-3.3-3.8-6.7-1.4-2.5-2.2-2.9-3.7-2.9h-.8v10.2h0ZM609.4,174.9c1.2.1,3.6,0,4.2-.3.9-.4,2.7-1.7,2.7-4.6s-2.3-5.2-5-5.2-1.4,0-1.9.1v10h0Z"/>
          <path class="cls-5" d="M650.7,185c-.1,1.5-.7,2.8-1.5,3.5-1.1.7-3.4,1.5-6.4,1.5-10,0-15.5-5.7-15.5-14.1s6.9-14.7,15.6-14.7,7.4,1.4,8.1,2.2c0,1.5-.9,3-2.3,2.8-1.3-.6-3.4-1.2-5.8-1.2-5.3,0-9.7,3.5-9.7,10.5s3.8,10.6,10.8,10.6,5.3-.8,6.4-1.1h.1q0,0,0,0Z"/>
          <path class="cls-5" d="M673.1,173.1v-10.1c0-1,.3-1.1,1.1-1.2,1.1,0,3.2-.1,4.6-.2,0,1.7-.1,4.3-.1,8v14.2c0,3.1,0,4.5.1,5.4-.9.2-3.7.4-4.7.4s-.9-.1-.9-.8v-12.1c-.9,0-2.3.1-5,.1h-6.7v11.4c0,.9-.3,1.1-1.4,1.2-1.2.1-3.3.2-4.3.2,0-1.8.1-4.4.1-8.1v-13.9c0-3,0-4.8-.1-5.6,1.1-.2,3.8-.4,4.7-.4s.9.4.9,2.4v9.1h11.8,0Z"/>
        </g>
      </g>
    </g>
  </g>
</svg>